<svg version="1.1" id="Layer_1" xmlns="http://www.w3.org/2000/svg" xmlns:xlink="http://www.w3.org/1999/xlink" x="0px" y="0px" width="100%" viewBox="0 0 512 512" enable-background="new 0 0 512 512" xml:space="preserve"> <path fill="#B6B361" opacity="1.000000" stroke="none"  d=" M116.000000,513.000000  C95.979103,513.000000 75.958214,513.000000 55.566982,512.763428  C55.308971,510.542603 55.519405,508.558380 55.519646,506.574188  C55.539787,341.373016 55.540966,176.171829 55.567425,10.970652  C55.567959,7.647079 55.849541,4.323550 56.000000,1.000000  C76.020897,1.000000 96.041786,1.000000 116.480148,1.416981  C116.747299,9.294909 116.472511,16.755760 116.466850,24.216818  C116.429977,72.809265 116.451012,121.401756 116.454155,169.994232  C116.455696,193.744888 116.447823,217.495560 116.464485,241.246201  C116.513016,310.418640 116.559898,379.591095 116.636993,448.763519  C116.651611,461.877502 116.927399,474.992188 116.844078,488.105042  C116.791336,496.404785 116.296532,504.701782 116.000000,513.000000  M72.570023,440.093994  C76.129440,436.146942 79.714554,432.222656 83.239166,428.244751  C85.550430,425.636230 87.673798,425.764740 89.812553,428.433868  C91.888039,431.024048 93.910088,433.667908 96.137207,436.123505  C101.307640,441.824341 106.587601,447.425873 112.123405,453.391205  C112.556305,452.216278 112.856361,451.780090 112.857803,451.342926  C112.897141,439.366730 113.002693,427.388885 112.814476,415.415771  C112.786652,413.646118 111.709106,411.581085 110.497658,410.193726  C103.832657,402.560638 96.974594,395.096161 90.183670,387.573029  C86.647179,383.655182 85.569565,383.657410 82.007751,387.666351  C77.153748,393.129761 72.058395,398.405792 67.558304,404.147583  C64.229256,408.395233 59.341980,411.615845 59.865505,418.506104  C60.581768,427.933044 60.027531,437.455261 60.062965,446.936462  C60.069366,448.649872 60.292854,450.362518 60.511421,453.399994  C65.019104,448.454132 68.576263,444.551208 72.570023,440.093994  M111.335426,153.526215  C104.369949,145.710175 97.318024,137.968704 90.480019,130.042694  C87.597649,126.701721 85.312172,126.650726 82.425133,129.995148  C76.122559,137.296249 69.437935,144.276154 63.333450,151.734360  C61.512871,153.958649 60.294945,157.305878 60.188484,160.189819  C59.814041,170.333374 60.021816,180.499283 60.066620,190.656464  C60.073242,192.158401 60.392258,193.658966 60.679478,196.130096  C68.765373,187.049103 76.062836,178.908508 83.285614,170.702179  C85.028145,168.722336 86.397423,167.309448 88.784286,170.101715  C95.157379,177.557220 101.690613,184.876587 108.216087,192.200287  C109.291077,193.406784 110.648720,194.361450 112.742279,196.188904  C112.742279,182.010071 112.758270,169.221130 112.702545,156.432526  C112.699203,155.665390 112.122986,154.900742 111.335426,153.526215  M92.013611,189.506332  C90.134949,187.739960 88.256287,185.973587 85.870644,183.730530  C78.730995,191.785950 72.528023,199.886566 65.174004,206.754715  C58.554356,212.936981 60.240952,219.969376 60.156075,228.483337  C69.289436,218.300751 77.556610,209.083847 86.182274,199.467270  C95.030746,209.154282 103.337234,218.247940 111.643730,227.341614  C112.041695,227.168076 112.439667,226.994537 112.837639,226.821014  C112.424309,220.160721 114.842377,213.311203 108.215218,207.405975  C102.418045,202.240295 97.689613,195.875244 92.013611,189.506332  M60.054165,473.900055  C60.054165,477.031342 60.054165,480.162628 60.054165,483.293915  C60.675598,483.438934 61.297031,483.583984 61.918468,483.729004  C69.959137,474.867310 77.999809,466.005615 86.326828,456.828339  C95.169357,466.574463 103.312134,475.549316 111.454918,484.524170  C112.043930,484.309509 112.632942,484.094849 113.221954,483.880219  C112.762329,479.075653 113.982330,473.037079 111.528694,469.697540  C104.113770,459.605133 95.272888,450.560425 86.683212,440.759857  C85.042206,442.251678 83.737686,443.242950 82.667213,444.442963  C76.594627,451.250458 70.452560,458.003326 64.613121,465.007446  C62.676918,467.329834 61.568024,470.341980 60.054165,473.900055  z"/> <path fill="#B6B361" opacity="1.000000" stroke="none"  d=" M311.000000,1.000000  C320.687561,1.000000 330.375122,1.000000 340.482056,1.348951  C339.241852,3.954720 337.731323,6.341733 335.894989,8.444136  C330.207336,14.955842 324.262512,21.248005 318.722107,27.879854  C317.265564,29.623316 316.224274,32.271614 316.169342,34.532986  C315.910645,45.184151 316.040924,55.845360 316.093597,66.502686  C316.099640,67.724632 316.487885,68.944687 316.815216,70.838684  C318.075684,69.659332 318.818542,69.063103 319.445068,68.362823  C325.877625,61.173367 332.329803,54.000813 338.691193,46.748669  C341.204773,43.883087 343.195129,43.555550 345.888123,46.773373  C351.007294,52.890217 356.483337,58.708923 361.828949,64.635406  C363.835358,66.859863 365.891296,69.039665 368.925201,72.322472  C368.925201,59.066406 369.157410,47.428032 368.764893,35.810757  C368.664520,32.839706 367.207611,29.433485 365.309143,27.089663  C358.109589,18.201286 350.473114,9.666815 343.000000,0.999997  C352.687561,1.000000 362.375122,1.000000 372.545349,1.376835  C373.002563,5.578094 372.955658,9.402514 372.955017,13.226942  C372.948273,54.042080 372.943573,94.857224 372.948395,135.672363  C372.963226,261.448242 372.982452,387.224121 373.000000,513.000000  C352.979095,513.000000 332.958221,513.000000 312.482605,512.531494  C312.034943,463.323364 312.058960,414.583740 312.042877,365.844116  C312.032349,333.890533 311.929413,301.936951 311.930603,269.983368  C311.931854,235.599350 312.003357,201.215347 312.049683,166.831329  C312.113037,119.814308 312.242950,72.797218 312.190247,25.780331  C312.181000,17.519787 311.415985,9.260089 311.000000,1.000000  M316.063751,304.497650  C316.063751,310.042633 316.063751,315.587616 316.063751,321.132599  C316.990570,321.687103 317.917358,322.241608 318.844177,322.796112  C319.785126,321.030334 320.443298,319.021637 321.715607,317.540527  C327.459564,310.853943 333.410522,304.345673 339.214996,297.710297  C341.317078,295.307251 343.104675,295.120361 345.301514,297.651031  C349.770538,302.799042 354.374115,307.831268 358.969299,312.868317  C361.710938,315.873718 364.541809,318.797729 368.347260,322.834747  C368.635529,319.711243 368.898865,318.146240 368.905090,316.580200  C368.944122,306.749908 369.140717,296.911713 368.787903,287.093964  C368.689667,284.361206 367.503815,281.209564 365.787109,279.080414  C360.996460,273.138580 355.671783,267.626770 350.546600,261.955444  C347.913269,259.041473 345.255798,256.149384 342.458618,253.082260  C341.205414,254.096039 340.359711,254.623489 339.709442,255.330658  C333.743713,261.818451 327.904297,268.425110 321.839661,274.818359  C317.335083,279.567017 315.218079,284.881348 315.970551,291.512207  C316.418518,295.459991 316.052094,299.500183 316.063751,304.497650  M363.379852,333.182159  C357.751434,326.835724 352.028137,320.569916 346.534058,314.109222  C343.736572,310.819550 341.460236,310.469635 338.486084,313.911346  C332.502502,320.835480 326.575012,327.847870 320.095032,334.291473  C314.241821,340.111816 316.320984,346.581970 317.618835,353.520416  C325.721893,344.481812 333.824951,335.443207 342.272064,326.020813  C351.107849,335.779449 359.413361,344.952454 368.606445,355.105713  C368.883453,346.556458 370.895996,339.152679 363.379852,333.182159  M335.617279,66.112152  C330.341248,72.102158 325.286682,78.307693 319.725983,84.020599  C314.334808,89.559296 316.358673,95.763092 317.215698,102.347649  C318.667419,101.656990 319.269196,100.434479 320.139709,99.449417  C325.975555,92.845497 331.796967,86.226143 337.766693,79.744049  C342.222504,74.905792 342.808838,75.042671 346.970642,79.893890  C350.651947,84.185020 354.405609,88.416039 358.203705,92.604355  C361.234650,95.946671 364.380493,99.184769 368.151398,103.186615  C369.836914,94.067802 369.320129,87.258995 362.930023,81.430733  C357.675781,76.638489 353.061615,71.091766 348.514954,65.589264  C342.201019,57.948025 342.124878,57.830822 335.617279,66.112152  z"/> <path fill="#B6B361" opacity="1.000000" stroke="none"  d=" M172.000000,1.000003  C181.354233,1.000000 190.708450,1.000000 200.541824,1.467613  C201.025543,15.218164 200.954514,28.501652 201.051468,41.783916  C201.220032,64.873878 201.604355,87.962646 201.692017,111.052704  C201.795364,138.274918 201.750259,165.498260 201.640259,192.720581  C201.513504,224.087570 201.099213,255.453949 201.086243,286.820709  C201.076294,310.908844 201.614548,334.996765 201.692856,359.085510  C201.794312,390.294495 201.635529,421.504272 201.676453,452.713562  C201.702805,472.809143 201.886703,492.904541 202.000000,513.000000  C181.979111,513.000000 161.958206,513.000000 141.482330,512.531494  C141.018219,341.708649 141.009109,171.354324 141.000000,1.000000  C150.687561,1.000000 160.375122,1.000000 170.440323,1.322959  C163.174225,10.418369 155.397339,19.080833 147.990402,28.048861  C146.356720,30.026859 145.315399,33.065361 145.234726,35.653942  C144.918365,45.807053 145.074585,55.975613 145.113403,66.138214  C145.118713,67.530434 145.451843,68.921402 145.764542,71.320740  C147.837387,69.383530 149.231537,68.254509 150.420471,66.939873  C156.108368,60.650562 161.716202,54.288857 167.400589,47.996330  C171.802780,43.123192 172.291061,43.182697 176.754089,48.357834  C182.620514,55.160259 188.492706,61.958012 194.416840,68.710014  C195.178986,69.578644 196.266800,70.161522 197.873566,71.388100  C197.873566,58.094456 197.987946,45.785404 197.755554,33.482899  C197.718857,31.540775 196.490295,29.310869 195.173889,27.754393  C187.555359,18.746529 179.745255,9.900684 172.000000,1.000003  M153.173111,314.678619  C158.101868,309.265533 163.338074,304.094147 167.850784,298.353943  C170.836395,294.556244 172.861252,294.917419 175.654205,298.152740  C181.419617,304.831238 187.280106,311.428131 193.141953,318.022614  C194.245331,319.263885 195.536880,320.337921 197.782852,322.484100  C197.782852,308.249390 197.845535,295.634674 197.687256,283.022736  C197.671188,281.742493 196.506149,280.322174 195.565048,279.234406  C191.207062,274.197296 186.768524,269.228760 182.302444,264.286621  C178.901184,260.522827 175.415359,256.835480 171.489014,252.598099  C162.668091,262.549103 154.386978,271.856201 146.176575,281.225281  C145.574310,281.912506 145.196533,283.047882 145.197495,283.974396  C145.210449,296.458435 145.305969,308.942383 145.418335,321.426086  C145.419952,321.607269 145.896851,321.784241 146.461548,322.180359  C148.532593,319.884918 150.632492,317.557465 153.173111,314.678619  M163.961594,67.445572  C159.692963,72.108887 155.850571,77.278305 151.055649,81.316734  C143.887436,87.353996 144.760178,94.809837 145.484833,103.236908  C146.853149,102.166809 147.833939,101.600861 148.557983,100.802162  C155.255936,93.413750 162.126495,86.164406 168.473343,78.483368  C171.154800,75.238220 172.682327,75.071320 175.281372,78.249863  C179.171982,83.007950 183.357544,87.524834 187.417679,92.144295  C190.596970,95.761536 193.776276,99.378746 196.955582,102.995979  C197.200653,95.949837 200.025711,89.084167 193.996918,83.312584  C188.607254,78.152878 183.930252,72.246338 178.966003,66.645226  C171.432175,58.144844 171.442169,58.135983 163.961594,67.445572  M180.082474,319.414978  C178.404907,317.567841 176.567902,315.839294 175.085510,313.846924  C172.596420,310.501526 170.787842,310.816711 168.150818,313.974182  C162.294632,320.986145 156.507767,328.180420 149.790985,334.312805  C143.562851,339.999084 145.153412,346.288849 145.479172,352.769989  C146.279831,353.420746 147.080490,354.071503 147.881149,354.722260  C148.647324,353.066101 149.086212,351.126221 150.234711,349.801544  C156.112900,343.021851 162.286865,336.497284 168.121704,329.681763  C170.880966,326.458801 172.956055,327.048126 175.348297,329.881714  C178.565338,333.692261 181.792023,337.502075 185.180664,341.158264  C188.831985,345.097839 192.675140,348.859619 196.434601,352.698975  C196.917038,352.456482 197.399475,352.213989 197.881912,351.971497  C197.322693,346.436066 199.810715,340.694305 194.426331,335.568878  C189.397583,330.781982 185.148636,325.175903 180.082474,319.414978  z"/> <path fill="#B6B461" opacity="1.000000" stroke="none"  d=" M287.000000,513.000000  C267.312439,513.000000 247.624878,513.000000 227.466873,512.531372  C226.997620,341.708466 226.998810,171.354233 227.000000,1.000000  C246.687561,1.000000 266.375122,1.000000 286.531921,1.468659  C287.000793,172.291550 287.000397,342.645782 287.000000,513.000000  M260.510284,387.056396  C258.089630,383.836212 255.938263,384.113403 253.333984,387.112946  C246.788574,394.651855 239.891266,401.887909 233.438400,409.502472  C231.984528,411.218048 231.141632,413.967712 231.088989,416.265900  C230.848740,426.757874 230.974197,437.258636 231.013474,447.756104  C231.018723,449.159424 231.281982,450.561737 231.504730,452.734924  C232.945389,451.424255 233.827362,450.748474 234.558472,449.936768  C240.796310,443.011566 247.248566,436.258392 253.123611,429.036346  C256.067719,425.417175 257.991699,425.981537 260.564209,428.959381  C264.914673,433.995331 269.291992,439.010223 273.758240,443.943207  C276.226074,446.668823 278.897736,449.209869 281.477509,451.834137  C281.896515,451.597351 282.315491,451.360565 282.734497,451.123779  C282.834625,449.363617 283.016449,447.603668 283.021179,445.843262  C283.045929,436.679016 282.801727,427.506989 283.115509,418.353577  C283.272217,413.782288 281.690216,410.380005 278.708649,407.172333  C272.710968,400.719757 266.874939,394.116974 260.510284,387.056396  M231.005737,192.490921  C231.147476,193.244614 231.289215,193.998322 231.539001,195.326523  C232.669388,194.312836 233.426559,193.748932 234.045776,193.060883  C240.716064,185.649017 247.450592,178.291870 253.970886,170.749771  C256.152740,168.225998 257.833740,167.996719 259.964233,170.560760  C262.619598,173.756424 265.270172,176.962738 268.070038,180.030090  C272.552612,184.940964 277.156281,189.741318 282.031342,194.931793  C282.583282,193.545547 282.912384,193.102539 282.914337,192.658127  C282.966095,180.846985 283.050507,169.035004 282.924835,157.225327  C282.908936,155.730087 282.093781,153.955811 281.085052,152.805161  C274.401489,145.181473 267.402100,137.830002 260.849213,130.098587  C257.853729,126.564323 255.617126,126.853485 252.841415,130.000153  C247.673508,135.858688 242.499359,141.714935 237.191116,147.445496  C232.761444,152.227600 230.273239,157.302826 230.821579,164.264221  C231.537964,173.359055 230.997482,182.552887 231.005737,192.490921  M278.429352,223.031845  C279.569977,224.370224 280.710632,225.708603 281.851288,227.046982  C282.811859,219.637054 284.612274,212.851166 278.199707,206.897186  C271.536926,200.710892 265.905701,193.401871 259.936981,186.485718  C257.663971,183.851883 255.875076,184.360474 253.831497,186.668137  C248.104889,193.134811 242.774994,200.051910 236.418213,205.834488  C229.613144,212.024841 230.841110,219.175552 231.408127,227.724182  C239.364944,218.946533 246.793594,211.138168 253.724930,202.910812  C256.416962,199.715424 257.946960,200.196198 260.288391,202.858109  C266.107452,209.473694 272.046906,215.983368 278.429352,223.031845  M267.388947,452.125885  C264.131500,448.464661 260.874054,444.803406 257.104340,440.566345  C249.480759,449.151733 242.863373,457.519989 235.264740,464.874390  C229.074646,470.865570 231.376099,477.335297 231.285980,485.262238  C240.410614,475.104889 248.540405,466.055023 256.908264,456.740112  C265.514099,466.220856 273.507843,475.027344 282.320587,484.736053  C283.682892,475.715729 283.693939,468.905640 277.624298,463.320099  C274.089233,460.066956 271.079895,456.242584 267.388947,452.125885  z"/> <path fill="#B6B461" opacity="1.000000" stroke="none"  d=" M398.000000,1.000000  C417.687561,1.000000 437.375122,1.000000 457.533112,1.467858  C458.002350,172.290482 458.001160,342.645233 458.000000,513.000000  C438.312439,513.000000 418.624878,513.000000 398.458313,512.531433  C397.978943,508.399384 397.978119,504.735870 397.978271,501.072388  C397.985474,334.381592 397.992737,167.690796 398.000000,1.000000  M450.523682,450.862335  C453.863983,453.863159 453.912231,451.209412 453.918488,448.820862  C453.946869,438.009338 454.116058,427.191254 453.766144,416.390717  C453.682739,413.815857 452.312256,410.877899 450.641968,408.836731  C446.018738,403.187042 440.915955,397.930511 436.020386,392.502655  C433.298920,389.485260 430.612762,386.436127 427.602844,383.055573  C421.717499,389.634003 416.593719,395.720551 411.080841,401.431549  C404.300903,408.455200 399.070770,415.779846 400.951233,426.407074  C401.693390,430.601074 401.074432,435.035950 401.074799,439.361145  C401.075134,443.773346 401.074890,448.185577 401.074890,452.597778  C401.502716,452.773102 401.930542,452.948425 402.358398,453.123749  C410.695709,443.864716 419.033051,434.605652 427.891815,424.767548  C435.551666,433.608124 442.802826,441.976990 450.523682,450.862335  M438.505859,137.980469  C435.944122,135.151489 433.264923,132.418503 430.852997,129.467087  C428.342072,126.394508 426.428162,126.968666 424.057098,129.715164  C417.223053,137.631226 410.087311,145.289978 403.371918,153.302795  C401.942505,155.008362 401.204987,157.771622 401.152130,160.070648  C400.918854,170.221817 401.034332,180.381470 401.071869,190.537872  C401.077576,192.087219 401.336914,193.635651 401.561157,196.080887  C403.033081,194.702042 403.770905,194.105164 404.398254,193.408768  C410.961426,186.122986 417.618195,178.916840 424.004608,171.478745  C426.712799,168.324615 428.544739,168.007645 431.368896,171.421799  C436.877075,178.080658 442.753662,184.436630 448.537964,190.863800  C449.769165,192.231827 451.257751,193.368225 453.148651,195.083984  C453.148651,181.452759 453.300079,168.891678 452.995819,156.341660  C452.946503,154.308624 451.138672,152.103836 449.684082,150.362274  C446.274139,146.279617 442.585602,142.429611 438.505859,137.980469  M435.998077,208.490799  C441.570221,214.703308 447.142334,220.915817 453.605804,228.122131  C453.925720,219.759659 455.375336,212.930557 449.290100,207.264954  C445.304565,203.554245 442.062866,199.050751 438.427032,194.956467  C435.044373,191.147232 431.580963,187.409683 427.802094,183.254623  C420.263092,191.640778 413.601959,199.949417 405.976379,207.250748  C399.778564,213.184998 400.981750,219.789230 401.486786,228.211456  C410.642273,218.146973 418.913086,209.054993 427.563965,199.545258  C430.553040,202.710022 433.035095,205.337967 435.998077,208.490799  M415.537323,470.047455  C416.924652,468.613342 418.279144,467.145630 419.706207,465.752258  C422.501678,463.022919 425.337646,460.335052 428.156830,457.630005  C430.932434,460.640076 433.711517,463.646942 436.482849,466.660950  C441.897919,472.550110 447.308655,478.443268 452.721191,484.334778  C453.234741,484.187744 453.748322,484.040710 454.261902,483.893677  C453.788086,478.927032 455.043732,472.696503 452.512756,469.233246  C445.228729,459.266235 436.415192,450.416992 428.001740,440.901520  C426.495026,442.254059 425.443726,443.038849 424.583374,443.995392  C418.029846,451.281403 411.836029,458.926453 404.885925,465.809174  C399.100311,471.538635 401.564423,477.801849 402.549530,484.474976  C406.713654,479.833862 410.877777,475.192780 415.537323,470.047455  z"/> <path fill="#B6B361" opacity="1.000000" stroke="none"  d=" M513.000000,75.000000  C513.000000,134.354233 513.000000,193.708450 512.676941,253.615448  C504.967133,262.012329 497.346069,269.655518 490.340576,277.826477  C488.313416,280.190857 487.267151,284.036407 487.129822,287.260773  C486.719269,296.899841 486.967163,306.567657 486.996277,316.224152  C487.001038,317.801636 487.200470,319.378540 487.410095,322.399323  C492.342316,317.060211 496.261688,312.648132 500.369171,308.418762  C504.481659,304.184204 508.781982,300.132080 513.000000,296.000000  C513.000000,300.689240 513.000000,305.378510 512.688232,310.648071  C505.303406,318.890656 498.594025,326.936676 491.041687,334.093109  C485.062195,339.759125 487.325195,345.915741 488.032196,352.450684  C491.422791,349.822113 494.210693,346.874176 496.998169,343.925842  C502.332245,338.284027 507.666077,332.641968 513.000000,327.000000  C513.000000,389.000031 513.000000,451.000061 513.000000,513.000000  C503.231415,513.000000 493.584381,513.000000 483.474396,512.532166  C483.007629,341.709564 483.003815,171.354782 483.000000,1.000000  C492.333344,1.000000 501.666809,0.979522 510.999695,1.043060  C511.668610,1.047613 512.333313,1.666670 512.658691,2.545766  C504.190765,11.820999 496.014282,20.505297 488.010193,29.345678  C487.154602,30.290693 487.042206,32.144283 487.030548,33.580002  C486.943939,44.240677 486.949707,54.902340 486.988312,65.563469  C486.992767,66.795822 487.376373,68.026817 487.584198,69.258438  C488.266571,69.774704 488.948975,70.290970 489.631348,70.807236  C490.702698,68.964890 491.486420,66.858383 492.894470,65.325279  C499.502319,58.130508 506.281830,51.093410 513.000000,44.000000  C513.000000,49.022091 513.000000,54.044186 512.691040,59.662796  C505.608307,67.532188 499.221283,75.223053 491.946655,81.954765  C485.307800,88.098167 487.253693,95.201653 487.086639,103.510033  C496.315399,93.356499 504.657684,84.178246 513.000000,75.000000  z"/> <path fill="#B6B461" opacity="1.000000" stroke="none"  d=" M31.000000,513.000000  C21.020199,513.000000 11.040399,513.000000 1.000000,513.000000  C1.000000,450.979126 1.000000,388.958221 1.271599,326.660828  C9.568461,335.365540 17.593725,344.346710 25.618988,353.327911  C26.216217,353.148895 26.813444,352.969879 27.410671,352.790863  C26.877522,347.701630 28.117935,341.264771 25.471199,337.781525  C18.185062,328.192566 9.270411,319.841064 1.000003,311.000000  C1.000000,306.310760 1.000000,301.621490 1.339229,296.521545  C3.487679,297.779327 5.417380,299.336212 7.084738,301.136078  C13.446852,308.003906 19.724442,314.950012 26.925703,322.844940  C26.925703,308.654022 26.959223,295.869568 26.863203,283.086029  C26.855371,282.043427 26.171722,280.825714 25.449440,279.996582  C18.345133,271.841309 11.190561,263.729187 3.970243,255.676575  C3.251228,254.874664 2.002747,254.547501 0.999999,254.000000  C1.000000,194.645767 1.000000,135.291550 1.239320,75.696747  C9.414777,84.240341 17.350912,93.024498 25.287048,101.808647  C25.725784,101.561951 26.164520,101.315247 26.603256,101.068550  C27.165474,94.699257 28.288620,88.434784 22.884727,82.836571  C16.665876,76.394104 10.996985,69.423325 4.982465,62.778648  C3.923818,61.609085 2.340837,60.914131 1.000001,60.000000  C1.000000,54.977909 1.000000,49.955814 1.298862,44.615372  C9.542885,52.789661 17.488045,61.282303 25.433207,69.774948  C25.966354,69.553780 26.499504,69.332619 27.032652,69.111458  C27.032652,61.036591 26.491407,52.915977 27.169121,44.898399  C28.023796,34.787308 26.078577,26.217421 17.552160,19.910023  C16.779354,19.338341 16.370461,18.300016 15.671401,17.599274  C10.798839,12.714988 5.894296,7.862606 1.000000,3.000000  C0.392022,0.602096 2.090775,1.002696 3.437527,1.002083  C12.312578,0.998048 21.187632,1.000000 30.532173,1.468662  C31.001106,172.291550 31.000553,342.645782 31.000000,513.000000  z"/> <path fill="#A19A49" opacity="1.000000" stroke="none"  d=" M226.541931,1.000000  C226.998810,171.354233 226.997620,341.708466 226.998215,512.531372  C218.979095,513.000000 210.958191,513.000000 202.468643,513.000000  C201.886703,492.904541 201.702805,472.809143 201.676453,452.713562  C201.635529,421.504272 201.794312,390.294495 201.692856,359.085510  C201.614548,334.996765 201.076294,310.908844 201.086243,286.820709  C201.099213,255.453949 201.513504,224.087570 201.640259,192.720581  C201.750259,165.498260 201.795364,138.274918 201.692017,111.052704  C201.604355,87.962646 201.220032,64.873878 201.051468,41.783916  C200.954514,28.501652 201.025543,15.218164 201.010483,1.467613  C204.692902,1.000000 208.385818,1.000000 212.532623,1.424657  C212.998169,8.878785 213.009827,15.908256 212.780884,23.162926  C212.331512,29.150593 211.953323,34.915676 212.042313,40.673546  C212.062607,41.986382 213.697418,43.274265 214.589127,44.573635  C215.422089,43.154652 216.972473,41.730606 216.962494,40.317570  C216.921661,34.531052 216.404907,28.747889 216.173080,22.751604  C216.188553,15.359813 216.094284,8.179906 216.000000,1.000000  C219.361282,1.000000 222.722580,1.000000 226.541931,1.000000  M213.956696,277.891602  C213.956696,277.891602 213.982010,278.012421 214.007553,278.459564  C214.007553,278.459564 214.043594,278.905975 213.372055,279.306396  C213.055054,285.805084 212.684174,292.302368 212.519470,298.804932  C212.505768,299.346649 213.900681,300.379059 214.609344,300.351990  C215.276047,300.326538 216.489761,299.164795 216.453369,298.564148  C216.056122,292.007263 215.460526,285.462433 214.653442,278.570068  C214.463226,278.348419 214.249924,278.151825 213.956696,277.891602  M216.024567,363.655121  C216.049881,358.037781 216.170944,352.417877 216.021164,346.805206  C215.990555,345.657959 214.943695,344.537872 214.365295,343.405243  C213.618469,344.523773 212.295792,345.607086 212.224838,346.766937  C211.923065,351.699982 211.939117,356.656158 211.978088,361.602753  C211.984558,362.422791 212.682358,363.237427 212.715210,364.807709  C212.500626,370.548859 212.173462,376.289917 212.167450,382.031281  C212.166260,383.164520 213.401581,384.299103 214.066666,385.433044  C214.716797,384.277557 215.896744,383.136139 215.927841,381.964172  C216.085205,376.034241 215.943909,370.096405 216.024567,363.655121  M212.713303,108.892464  C212.502609,114.473434 212.165649,120.055107 212.196518,125.634735  C212.202148,126.650772 213.709854,127.658501 214.524185,128.670074  C215.233765,127.560768 216.552673,126.450371 216.550674,125.342346  C216.540344,119.604057 216.192459,113.866371 216.149200,107.415161  C216.034363,100.757179 215.919525,94.099197 215.804688,87.441208  C215.150620,87.450089 214.496552,87.458969 213.842468,87.467850  C211.241470,94.186310 212.923981,101.220871 212.713303,108.892464  M212.046555,450.233521  C212.057495,455.853851 211.958939,461.478271 212.169769,467.091095  C212.213058,468.243744 213.413101,469.352966 214.079971,470.482208  C214.717529,469.483185 215.877075,468.499237 215.906433,467.482635  C216.075165,461.639160 215.976059,455.787933 215.986862,449.016663  C216.156158,443.251678 216.388306,437.487152 216.432022,431.721191  C216.439209,430.775269 215.617447,429.823029 215.178802,428.873718  C214.294266,429.625336 212.895187,430.233612 212.637161,431.159760  C212.166275,432.850006 212.344223,434.727844 212.299759,436.528625  C212.194321,440.798370 212.117096,445.068817 212.046555,450.233521  M215.964279,192.396103  C216.111816,186.959106 216.351639,181.521698 216.327225,176.085464  C216.322464,175.028000 215.289322,173.975143 214.730530,172.920166  C213.966843,173.814774 212.803650,174.603867 212.532974,175.628677  C212.125381,177.171860 212.331360,178.879654 212.295166,180.517868  C212.200821,184.788666 212.116592,189.059708 212.046356,194.226273  C212.057526,200.054214 211.971542,205.885498 212.171356,211.706955  C212.206436,212.729309 213.439606,213.710510 214.119492,214.710709  C214.837250,214.213272 216.176529,213.718521 216.178696,213.217987  C216.207169,206.617279 216.047348,200.015747 215.964279,192.396103  M212.023071,262.114410  C211.999954,265.748627 211.848495,269.389587 212.037796,273.012695  C212.089554,274.003326 213.164169,274.940521 213.769394,275.902222  C214.534637,274.935944 215.867432,274.022614 215.963486,272.993835  C216.315292,269.225983 216.386856,265.416046 216.280167,261.629913  C216.242432,260.291016 215.391586,258.975067 214.911957,257.648621  C213.952972,258.865601 212.993988,260.082581 212.023071,262.114410  M216.467010,277.500061  C216.467010,277.500061 216.510727,277.484222 216.467010,277.500061  z"/> <path fill="#A19A49" opacity="1.000000" stroke="none"  d=" M287.468628,513.000000  C287.000397,342.645782 287.000793,172.291550 287.000610,1.468659  C290.361298,1.000000 293.722565,1.000000 297.538635,1.342111  C297.663940,8.798101 297.334534,15.911981 297.101440,23.429262  C297.431519,29.085989 297.554565,34.348122 297.971680,39.586842  C298.085022,41.010506 299.085266,42.363564 299.678436,43.749031  C300.439301,42.318443 301.784485,40.916660 301.856689,39.452126  C302.124451,34.021412 301.972687,28.570023 301.919525,22.789795  C301.907043,15.302125 301.953522,8.151063 302.000000,1.000000  C304.700012,1.000000 307.400024,1.000000 310.550018,1.000000  C311.415985,9.260089 312.181000,17.519787 312.190247,25.780331  C312.242950,72.797218 312.113037,119.814308 312.049683,166.831329  C312.003357,201.215347 311.931854,235.599350 311.930603,269.983368  C311.929413,301.936951 312.032349,333.890533 312.042877,365.844116  C312.058960,414.583740 312.034943,463.323364 312.013977,512.531494  C303.979095,513.000000 295.958191,513.000000 287.468628,513.000000  M297.671265,194.587814  C297.578949,200.193481 297.354340,205.802811 297.508331,211.401703  C297.538391,212.494400 299.038696,213.546677 299.860870,214.617615  C300.522919,213.808533 301.769775,212.987839 301.753998,212.192200  C301.633179,206.108215 301.266449,200.029129 301.072601,193.397537  C301.072601,186.531464 301.072601,179.665375 301.072601,172.799301  C299.228821,173.229095 297.714478,174.156082 297.703491,175.100540  C297.630524,181.381134 297.879242,187.665497 297.671265,194.587814  M297.882690,364.824341  C297.978027,371.864227 298.073364,378.904114 298.168732,385.943970  C299.098358,385.964844 300.028015,385.985718 300.957642,386.006561  C303.126709,378.918854 301.426208,371.400818 301.839569,363.624298  C301.839569,356.898041 301.839569,350.171814 301.839569,342.764862  C297.552979,345.375397 296.351379,354.811676 297.882690,364.824341  M297.196503,279.833679  C297.428772,285.109619 297.551178,290.394073 297.957397,295.656586  C298.086426,297.327484 298.971497,298.940063 299.510590,300.579315  C300.331146,298.896271 301.761414,297.247925 301.859436,295.523834  C302.169250,290.074005 301.980469,284.595825 301.910919,278.540710  C301.910919,271.515839 301.910919,264.490967 301.910919,257.466095  C301.073486,257.302429 300.236084,257.138763 299.398651,256.975067  C298.775269,258.901001 297.749939,260.797302 297.605499,262.758514  C297.207245,268.166168 297.177582,273.600983 297.196503,279.833679  M301.974335,459.536804  C301.949432,457.389252 302.096100,455.219391 301.820648,453.104462  C301.699493,452.174164 300.719238,451.355743 300.129089,450.486572  C299.442139,451.250763 298.188446,451.994598 298.160156,452.782410  C297.976501,457.895203 297.973297,463.020447 298.144409,468.133789  C298.171265,468.936920 299.384796,469.700287 300.049622,470.482025  C300.666168,469.632263 301.715668,468.830322 301.815826,467.923492  C302.086578,465.472565 301.953491,462.976990 301.974335,459.536804  M301.515228,93.495049  C301.515228,91.449493 301.515228,89.403931 301.515228,87.358376  C300.858002,87.200127 300.200775,87.041885 299.543518,86.883636  C298.859711,88.420113 297.663910,89.932541 297.590424,91.497681  C297.389648,95.773888 297.576202,100.077049 297.813660,104.358215  C297.865967,105.301567 298.763275,106.198059 299.271484,107.116135  C300.005219,106.217896 301.299408,105.362617 301.372162,104.413712  C301.637024,100.958298 301.493530,97.471596 301.515228,93.495049  M297.654816,432.109711  C297.657074,436.552887 297.540710,441.001678 297.751282,445.434937  C297.799377,446.447937 298.975494,447.407349 299.632477,448.391418  C300.257507,447.472504 301.384857,446.573639 301.422516,445.631226  C301.607178,441.012299 301.584564,436.378998 301.427948,431.757812  C301.397308,430.853699 300.450409,429.980652 299.926147,429.093292  C299.149628,429.887268 298.373077,430.681244 297.654816,432.109711  z"/> <path fill="#A19A49" opacity="1.000000" stroke="none"  d=" M397.539368,1.000000  C397.992737,167.690796 397.985474,334.381592 397.978271,501.072388  C397.978119,504.735870 397.978943,508.399384 397.989655,512.531433  C389.979095,513.000000 381.958191,513.000000 373.468628,513.000000  C372.982452,387.224121 372.963226,261.448242 372.948395,135.672363  C372.943573,94.857224 372.948273,54.042080 372.955017,13.226942  C372.955658,9.402514 373.002563,5.578094 373.013977,1.376835  C376.030609,1.000000 379.061188,1.000000 382.563873,1.313242  C383.021942,8.726110 383.007935,15.825736 382.996216,23.401186  C383.020569,29.511528 382.943115,35.149860 383.158752,40.776958  C383.196533,41.763149 384.464630,42.702194 385.164520,43.663013  C385.815308,43.052086 387.021667,42.449543 387.031006,41.828941  C387.125916,35.539673 387.025360,29.247452 386.919556,22.718451  C386.713287,21.715998 386.458344,20.954048 386.437866,20.185854  C386.267456,13.791221 386.140259,7.395436 386.000000,1.000000  C389.692902,1.000000 393.385834,1.000000 397.539368,1.000000  M387.102539,449.289948  C387.005768,442.536713 388.488495,435.562775 385.722321,429.182526  C385.169037,429.244476 384.615784,429.306427 384.062500,429.368378  C384.062500,436.187958 384.062500,443.007568 383.632690,450.455261  C383.427155,455.877075 383.079163,461.299988 383.122284,466.719818  C383.132294,467.981079 384.472961,469.231720 385.201416,470.487244  C385.797424,469.270844 386.866241,468.070526 386.908295,466.835266  C387.100037,461.202454 387.003357,455.559784 387.102539,449.289948  M383.587067,194.479095  C383.466309,200.646423 383.273926,206.814499 383.339478,212.979843  C383.345795,213.573105 384.955231,214.149292 385.820465,214.733414  C386.231110,213.770874 386.981720,212.813629 386.996826,211.844925  C387.089294,205.904053 387.015350,199.960587 387.099579,193.369568  C386.926727,186.647034 386.753876,179.924515 386.553680,172.138809  C383.215515,175.287064 382.575226,185.238388 383.587067,194.479095  M387.708069,107.403214  C387.577576,102.151451 387.613678,96.887268 387.223358,91.654884  C387.092316,89.898277 385.875427,88.222672 385.154877,86.510040  C384.443207,86.681519 383.731537,86.853004 383.019867,87.024483  C383.019867,94.058685 383.019867,101.092888 382.963104,108.781715  C383.021912,114.637589 383.022797,120.495346 383.212158,126.346992  C383.236053,127.085533 384.250183,127.792038 384.805511,128.513382  C385.507538,127.768120 386.595673,127.124008 386.823486,126.254517  C387.189301,124.858322 386.939362,123.310120 387.032135,121.831329  C387.318909,117.260063 387.644684,112.691246 387.708069,107.403214  M386.980835,277.831879  C386.822571,276.700470 386.451843,275.551361 386.544342,274.440826  C386.873108,270.494202 387.632019,266.562103 387.651733,262.621582  C387.659576,261.057434 386.160614,259.485718 385.347656,257.917480  C384.730896,259.282959 383.667694,260.619354 383.576477,262.019073  C383.223846,267.430481 383.181213,272.862091 383.022614,279.187592  C383.020203,284.964722 382.898804,290.746094 383.104706,296.515808  C383.152161,297.844604 384.321899,299.133392 384.975189,300.440582  C385.690460,299.163574 386.991913,297.899811 387.021149,296.607269  C387.159027,290.507294 386.948578,284.399414 386.980835,277.831879  M382.976807,364.788910  C382.976807,371.818390 382.976807,378.847870 382.976807,385.877380  C383.823273,385.894379 384.669769,385.911407 385.516235,385.928436  C388.137268,378.800873 387.388672,371.402496 386.052948,363.275452  C388.687256,354.406891 387.760101,345.073669 383.037598,342.531372  C383.037598,350.078400 383.037598,357.101562 382.976807,364.788910  z"/> <path fill="#A19A49" opacity="1.000000" stroke="none"  d=" M482.542023,1.000000  C483.003815,171.354782 483.007629,341.709564 483.005737,512.532166  C474.978577,513.000000 466.957123,513.000000 458.467834,513.000000  C458.001160,342.645233 458.002350,172.290482 458.001770,1.467858  C461.361359,1.000000 464.722687,1.000000 468.502075,1.411659  C468.681152,5.230676 468.368256,8.634893 468.223450,12.046247  C468.068176,15.705139 468.070953,19.370741 468.013916,23.498585  C468.038513,29.261818 467.912292,34.566738 468.167999,39.853176  C468.232788,41.192345 469.514618,42.472641 470.237183,43.779991  C470.981995,42.600983 472.346619,41.432274 472.366394,40.241230  C472.462006,34.485588 472.195923,28.723942 472.170044,22.759682  C472.187988,15.369959 472.093994,8.184979 472.000000,1.000000  C475.361359,1.000000 478.722687,1.000000 482.542023,1.000000  M472.816681,193.212906  C472.309631,186.476273 471.802612,179.739639 471.295563,173.002991  C470.806122,173.003738 470.316711,173.004471 469.827271,173.005203  C467.079407,179.758636 468.535400,187.009705 468.015411,194.959320  C468.027924,200.401871 467.892029,205.851990 468.169159,211.281036  C468.229797,212.469711 469.762207,213.583267 470.616852,214.731415  C471.129547,213.577042 472.006683,212.449219 472.093109,211.263779  C472.511200,205.529343 472.716736,199.779419 472.816681,193.212906  M469.406006,279.303558  C469.027710,285.470245 468.574890,291.634644 468.384766,297.807129  C468.365448,298.433289 469.927887,299.108154 470.756287,299.760437  C471.375122,298.784302 472.528412,297.806427 472.525269,296.832245  C472.506165,290.873566 472.224823,284.915741 472.222260,278.773529  C472.157776,278.836304 472.093262,278.899078 471.469727,278.941162  C471.283417,278.932922 471.097137,278.924652 470.718903,278.793213  C470.490479,278.713470 470.280792,278.754272 469.406006,279.303558  M472.149628,107.408318  C471.991760,100.797371 471.833862,94.186417 471.675995,87.575470  C470.869873,87.569687 470.063751,87.563904 469.257629,87.558121  C466.806488,94.246368 468.043243,101.197784 468.714142,108.886032  C468.494965,114.302910 468.124237,119.721222 468.175232,125.135559  C468.186401,126.320488 469.700745,127.491264 470.522827,128.668564  C471.223938,127.396469 472.519409,126.126289 472.523499,124.851952  C472.541473,119.275528 472.185181,113.697899 472.149628,107.408318  M468.609680,364.675873  C468.435883,370.638458 468.167877,376.601257 468.183502,382.563354  C468.186005,383.526215 469.450195,384.485779 470.131134,385.446869  C470.723969,384.755981 471.814728,384.077209 471.831909,383.372284  C471.988159,376.959229 471.957184,370.541595 471.992340,363.164551  C472.015381,357.891724 472.146179,352.615631 471.985413,347.348419  C471.945282,346.034302 470.964569,344.748901 470.416138,343.450287  C469.626862,344.711548 468.153992,345.979370 468.166046,347.232941  C468.219543,352.808838 468.698181,358.380676 468.609680,364.675873  M471.971222,448.966370  C471.971222,442.233307 471.971222,435.500214 471.971222,428.767151  C470.313202,429.288727 468.956299,430.331238 468.869141,431.470825  C468.402008,437.579590 468.251251,443.712555 467.995911,450.794769  C468.014404,456.739014 467.901642,462.688904 468.157654,468.622925  C468.211456,469.870483 469.620026,471.059631 470.404358,472.275696  C471.215912,471.194824 472.733734,470.106812 472.722961,469.034210  C472.658569,462.647034 472.240997,456.263367 471.971222,448.966370  M472.003662,268.412018  C471.999237,265.761108 472.127075,263.099823 471.919830,260.464874  C471.845581,259.521057 470.962219,258.640900 470.448090,257.731689  C469.661072,258.589661 468.279724,259.394073 468.196686,260.315491  C467.930847,263.265747 467.965546,266.275879 468.236115,269.230682  C468.429688,271.344513 469.188293,273.406616 469.694824,275.491791  C470.464264,273.441254 471.233704,271.390747 472.003662,268.412018  M467.944794,277.419830  C467.944794,277.419830 468.035675,277.423523 467.944794,277.419830  z"/> <path fill="#A19A49" opacity="1.000000" stroke="none"  d=" M31.468636,513.000000  C31.000553,342.645782 31.001106,172.291550 31.000830,1.468662  C34.692909,1.000000 38.385818,1.000000 42.409805,1.290687  C42.327271,3.985580 41.705627,6.375921 41.544277,8.796938  C41.228760,13.531176 41.170231,18.282539 41.101845,23.430090  C41.341846,29.770220 41.439007,35.708916 41.674942,41.642094  C41.713722,42.617321 42.362225,43.568306 42.728939,44.530495  C43.713451,43.853531 45.102535,43.381603 45.576714,42.445992  C46.128700,41.356857 45.956470,39.862347 45.964985,38.542889  C45.998138,33.403885 45.978394,28.264540 45.940868,22.836044  C45.769203,18.394262 45.785351,14.229607 45.450989,10.093284  C45.204418,7.043024 44.500267,4.029752 44.000000,1.000000  C47.692909,1.000000 51.385818,1.000000 55.539368,1.000000  C55.849541,4.323550 55.567959,7.647079 55.567425,10.970652  C55.540966,176.171829 55.539787,341.373016 55.519646,506.574188  C55.519405,508.558380 55.308971,510.542603 55.098324,512.763428  C47.312424,513.000000 39.624847,513.000000 31.468636,513.000000  M45.952438,107.488052  C45.952438,100.799995 45.952438,94.111938 45.952438,86.887123  C41.362480,88.982933 39.990891,99.391312 41.994671,108.946404  C41.987385,114.112862 41.848301,119.284744 42.060547,124.442169  C42.117397,125.823647 43.246052,127.161026 43.882668,128.518646  C44.576954,127.222664 45.815212,125.949448 45.870590,124.626717  C46.100460,119.136322 45.973305,113.630981 45.952438,107.488052  M45.910629,278.539459  C45.772930,273.098358 45.788887,267.645874 45.386589,262.224426  C45.289291,260.913147 43.810459,259.704407 42.966919,258.448547  C42.613152,258.751099 42.259380,259.053650 41.905613,259.356201  C41.604500,265.912964 41.303387,272.469727 41.197166,279.835175  C41.456955,285.414581 41.598969,291.003815 42.062149,296.566284  C42.173229,297.900299 43.352093,299.145416 44.039886,300.431396  C44.681404,299.099274 45.826916,297.785797 45.876915,296.431824  C46.089691,290.670074 45.978073,284.896362 45.910629,278.539459  M45.838535,363.619507  C45.838535,356.900757 45.838535,350.182037 45.838535,343.043396  C41.335518,344.922699 39.952888,355.131683 41.856308,364.764648  C41.973274,371.825623 42.090244,378.886627 42.207211,385.947601  C43.129257,385.970154 44.051304,385.992737 44.973351,386.015289  C47.132969,378.923859 45.421761,371.397980 45.838535,363.619507  M41.774368,193.896683  C41.654125,199.828644 41.429668,205.762131 41.516823,211.691055  C41.531250,212.672470 42.907986,213.633881 43.655170,214.604538  C44.405762,213.708832 45.817192,212.800949 45.800938,211.919373  C45.685413,205.652557 45.277958,199.391113 45.141453,192.622787  C45.141453,186.055130 45.141453,179.487473 45.141453,172.919815  C44.723068,172.683853 44.304684,172.447891 43.886299,172.211929  C42.965881,173.421295 41.255978,174.632751 41.259174,175.839676  C41.274544,181.639694 41.752605,187.438477 41.774368,193.896683  M41.945400,460.824249  C41.971409,463.154022 41.836571,465.502319 42.101151,467.804657  C42.209755,468.749756 43.179768,469.595825 43.757927,470.486938  C44.459278,469.722778 45.740101,468.979187 45.768024,468.191162  C45.950550,463.040314 45.927692,457.878113 45.790085,452.724487  C45.769646,451.958923 44.790577,451.218933 44.255013,450.467133  C43.473392,451.156372 42.109703,451.776367 42.017963,452.547668  C41.728802,454.978790 41.916801,457.466675 41.945400,460.824249  M45.473244,446.466461  C45.473244,440.571686 45.473244,434.676910 45.473244,428.782135  C44.999424,428.618195 44.525600,428.454224 44.051781,428.290283  C43.208469,429.217529 41.680828,430.113037 41.636097,431.077332  C41.397236,436.226837 41.173668,441.427612 41.663673,446.541779  C41.964973,449.686432 43.879875,449.435822 45.473244,446.466461  z"/> <path fill="#A19A49" opacity="1.000000" stroke="none"  d=" M140.545898,1.000000  C141.009109,171.354324 141.018219,341.708649 141.013672,512.531494  C132.979095,513.000000 124.958199,513.000000 116.468651,513.000000  C116.296532,504.701782 116.791336,496.404785 116.844078,488.105042  C116.927399,474.992188 116.651611,461.877502 116.636993,448.763519  C116.559898,379.591095 116.513016,310.418640 116.464485,241.246201  C116.447823,217.495560 116.455696,193.744888 116.454155,169.994232  C116.451012,121.401756 116.429977,72.809265 116.466850,24.216818  C116.472511,16.755760 116.747299,9.294909 116.948807,1.416981  C120.030594,1.000000 123.061188,1.000000 126.549652,1.365765  C127.002998,8.795784 126.998474,15.860038 126.994980,23.400225  C127.002533,29.168079 126.871643,34.466240 127.111320,39.747578  C127.171921,41.082863 128.415146,42.364475 129.114914,43.670750  C129.766907,42.415283 130.939545,41.176758 130.981033,39.901428  C131.163788,34.285957 131.020203,28.659866 131.046082,22.802471  C130.749985,21.683645 129.843826,20.473240 130.140396,19.965990  C133.770889,13.756266 130.056320,7.274030 131.000000,1.000000  C134.030594,1.000000 137.061188,1.000000 140.545898,1.000000  M130.309540,278.521271  C130.860092,273.851349 131.719650,269.187103 131.805496,264.508636  C131.838745,262.697052 130.120270,260.853302 129.199814,259.024200  C128.465714,259.270508 127.731628,259.516846 126.997536,259.763153  C126.997536,266.150360 126.997536,272.537567 126.997284,279.871338  C127.023560,285.535553 126.972733,291.202209 127.155251,296.861389  C127.184227,297.759827 128.263611,298.624420 128.857346,299.504639  C129.533066,298.720184 130.805695,297.923584 130.789993,297.153229  C130.665634,291.048645 130.296097,284.949066 130.309540,278.521271  M131.099670,193.371384  C131.343903,187.496597 131.689453,181.622345 131.721573,175.746399  C131.726303,174.879150 130.247253,174.003769 129.454712,173.132156  C128.804657,173.903427 127.590584,174.677048 127.593788,175.445587  C127.619446,181.574707 127.875793,187.702881 127.612083,194.555206  C127.428833,200.331451 127.142151,206.108109 127.164314,211.883560  C127.168007,212.844437 128.517075,213.800156 129.244446,214.758255  C129.842041,213.644470 130.924133,212.544281 130.955795,211.414627  C131.118149,205.620438 131.010178,199.818665 131.099670,193.371384  M127.620056,450.541199  C127.329750,455.628662 126.991669,460.714172 126.779266,465.804871  C126.718399,467.263855 126.887283,468.773468 127.259857,470.177917  C127.343185,470.492004 129.314331,470.749969 129.415298,470.543732  C130.159790,469.022919 131.093979,467.390228 131.139435,465.769501  C131.287460,460.491882 131.081512,455.204376 131.174118,449.162048  C131.174118,442.506775 131.174118,435.851532 131.174118,429.196259  C130.628189,429.032135 130.082275,428.868011 129.536346,428.703888  C128.857056,429.651337 127.592995,430.599091 127.593475,431.546173  C127.596565,437.635742 127.876572,443.725159 127.620056,450.541199  M130.897339,107.280807  C130.939713,101.653076 131.110428,96.021149 130.926849,90.400795  C130.885208,89.126114 129.614182,87.891594 128.909042,86.638596  C128.285461,86.838303 127.661873,87.038010 127.038292,87.237717  C127.038292,94.200928 127.038292,101.164146 126.977371,108.790871  C126.977371,115.844261 126.977371,122.897644 126.977371,130.486603  C131.762497,128.369324 130.872131,131.391113 130.897339,107.280807  M131.183243,363.116425  C131.427414,357.982544 131.846878,352.848541 131.844147,347.714783  C131.842728,345.021027 130.636475,342.891296 127.021729,343.659241  C127.021729,350.603058 127.021729,357.366211 127.012093,365.041534  C127.012093,372.013702 127.012093,378.985840 127.012093,386.820526  C131.454330,383.714508 131.815979,380.714355 131.183243,363.116425  z"/> <path fill="#968F3C" opacity="1.000000" stroke="none"  d=" M342.666687,0.999997  C350.473114,9.666815 358.109589,18.201286 365.309143,27.089663  C367.207611,29.433485 368.664520,32.839706 368.764893,35.810757  C369.157410,47.428032 368.925201,59.066406 368.925201,72.322472  C365.891296,69.039665 363.835358,66.859863 361.828949,64.635406  C356.483337,58.708923 351.007294,52.890217 345.888123,46.773373  C343.195129,43.555550 341.204773,43.883087 338.691193,46.748669  C332.329803,54.000813 325.877625,61.173367 319.445068,68.362823  C318.818542,69.063103 318.075684,69.659332 316.815216,70.838684  C316.487885,68.944687 316.099640,67.724632 316.093597,66.502686  C316.040924,55.845360 315.910645,45.184151 316.169342,34.532986  C316.224274,32.271614 317.265564,29.623316 318.722107,27.879854  C324.262512,21.248005 330.207336,14.955842 335.894989,8.444136  C337.731323,6.341733 339.241852,3.954720 340.950684,1.348951  C341.444458,1.000000 341.888885,1.000000 342.666687,0.999997  z"/> <path fill="#968F3C" opacity="1.000000" stroke="none"  d=" M171.750000,1.000003  C179.745255,9.900684 187.555359,18.746529 195.173889,27.754393  C196.490295,29.310869 197.718857,31.540775 197.755554,33.482899  C197.987946,45.785404 197.873566,58.094456 197.873566,71.388100  C196.266800,70.161522 195.178986,69.578644 194.416840,68.710014  C188.492706,61.958012 182.620514,55.160259 176.754089,48.357834  C172.291061,43.182697 171.802780,43.123192 167.400589,47.996330  C161.716202,54.288857 156.108368,60.650562 150.420471,66.939873  C149.231537,68.254509 147.837387,69.383530 145.764542,71.320740  C145.451843,68.921402 145.118713,67.530434 145.113403,66.138214  C145.074585,55.975613 144.918365,45.807053 145.234726,35.653942  C145.315399,33.065361 146.356720,30.026859 147.990402,28.048861  C155.397339,19.080833 163.174225,10.418369 170.908981,1.322959  C171.000000,1.000000 171.500000,1.000000 171.750000,1.000003  z"/> <path fill="#968F3C" opacity="1.000000" stroke="none"  d=" M0.999999,254.468658  C2.002747,254.547501 3.251228,254.874664 3.970243,255.676575  C11.190561,263.729187 18.345133,271.841309 25.449440,279.996582  C26.171722,280.825714 26.855371,282.043427 26.863203,283.086029  C26.959223,295.869568 26.925703,308.654022 26.925703,322.844940  C19.724442,314.950012 13.446852,308.003906 7.084738,301.136078  C5.417380,299.336212 3.487679,297.779327 1.339229,296.055420  C1.000000,282.312439 1.000000,268.624878 0.999999,254.468658  z"/> <path fill="#968F3C" opacity="1.000000" stroke="none"  d=" M513.000000,295.531342  C508.781982,300.132080 504.481659,304.184204 500.369171,308.418762  C496.261688,312.648132 492.342316,317.060211 487.410095,322.399323  C487.200470,319.378540 487.001038,317.801636 486.996277,316.224152  C486.967163,306.567657 486.719269,296.899841 487.129822,287.260773  C487.267151,284.036407 488.313416,280.190857 490.340576,277.826477  C497.346069,269.655518 504.967133,262.012329 512.676941,254.084106  C513.000000,267.687561 513.000000,281.375122 513.000000,295.531342  z"/> <path fill="#968F3C" opacity="1.000000" stroke="none"  d=" M513.000000,43.531342  C506.281830,51.093410 499.502319,58.130508 492.894470,65.325279  C491.486420,66.858383 490.702698,68.964890 489.631348,70.807236  C488.948975,70.290970 488.266571,69.774704 487.584198,69.258438  C487.376373,68.026817 486.992767,66.795822 486.988312,65.563469  C486.949707,54.902340 486.943939,44.240677 487.030548,33.580002  C487.042206,32.144283 487.154602,30.290693 488.010193,29.345678  C496.014282,20.505297 504.190765,11.820999 512.658691,3.045764  C513.000000,16.354227 513.000000,29.708456 513.000000,43.531342  z"/> <path fill="#968F3C" opacity="1.000000" stroke="none"  d=" M1.000000,3.468657  C5.894296,7.862606 10.798839,12.714988 15.671401,17.599274  C16.370461,18.300016 16.779354,19.338341 17.552160,19.910023  C26.078577,26.217421 28.023796,34.787308 27.169121,44.898399  C26.491407,52.915977 27.032652,61.036591 27.032652,69.111458  C26.499504,69.332619 25.966354,69.553780 25.433207,69.774948  C17.488045,61.282303 9.542885,52.789661 1.298862,44.148506  C1.000000,30.645771 1.000000,17.291544 1.000000,3.468657  z"/> <path fill="#968F3C" opacity="1.000000" stroke="none"  d=" M1.000001,60.466114  C2.340837,60.914131 3.923818,61.609085 4.982465,62.778648  C10.996985,69.423325 16.665876,76.394104 22.884727,82.836571  C28.288620,88.434784 27.165474,94.699257 26.603256,101.068550  C26.164520,101.315247 25.725784,101.561951 25.287048,101.808647  C17.350912,93.024498 9.414777,84.240341 1.239320,75.228088  C1.000000,70.310745 1.000000,65.621490 1.000001,60.466114  z"/> <path fill="#968F3C" opacity="1.000000" stroke="none"  d=" M513.000000,74.533875  C504.657684,84.178246 496.315399,93.356499 487.086639,103.510033  C487.253693,95.201653 485.307800,88.098167 491.946655,81.954765  C499.221283,75.223053 505.608307,67.532188 512.691040,60.129662  C513.000000,64.689255 513.000000,69.378510 513.000000,74.533875  z"/> <path fill="#968F3C" opacity="1.000000" stroke="none"  d=" M513.000000,326.533142  C507.666077,332.641968 502.332245,338.284027 496.998169,343.925842  C494.210693,346.874176 491.422791,349.822113 488.032196,352.450684  C487.325195,345.915741 485.062195,339.759125 491.041687,334.093109  C498.594025,326.936676 505.303406,318.890656 512.688232,311.114197  C513.000000,316.022095 513.000000,321.044189 513.000000,326.533142  z"/> <path fill="#968F3C" opacity="1.000000" stroke="none"  d=" M1.000003,311.466125  C9.270411,319.841064 18.185062,328.192566 25.471199,337.781525  C28.117935,341.264771 26.877522,347.701630 27.410671,352.790863  C26.813444,352.969879 26.216217,353.148895 25.618988,353.327911  C17.593725,344.346710 9.568461,335.365540 1.271599,326.192200  C1.000000,321.310760 1.000000,316.621490 1.000003,311.466125  z"/> <path fill="#968F3C" opacity="1.000000" stroke="none"  d=" M130.600006,1.000000  C130.056320,7.274030 133.770889,13.756266 130.140396,19.965990  C129.843826,20.473240 130.749985,21.683645 130.646652,22.777908  C129.128662,22.967096 128.061310,22.945694 126.993950,22.924290  C126.998474,15.860038 127.002998,8.795784 127.003761,1.365765  C128.066666,1.000000 129.133347,1.000000 130.600006,1.000000  z"/> <path fill="#968F3C" opacity="1.000000" stroke="none"  d=" M297.005096,23.025860  C297.334534,15.911981 297.663940,8.798101 297.996704,1.342111  C299.066681,1.000000 300.133331,1.000000 301.600006,1.000000  C301.953522,8.151063 301.907043,15.302125 301.507263,22.743216  C299.771057,23.030783 298.388062,23.028322 297.005096,23.025860  z"/> <path fill="#968F3C" opacity="1.000000" stroke="none"  d=" M468.004791,23.033415  C468.070953,19.370741 468.068176,15.705139 468.223450,12.046247  C468.368256,8.634893 468.681152,5.230676 468.960022,1.411659  C469.750000,1.000000 470.500000,1.000000 471.625000,1.000000  C472.093994,8.184979 472.187988,15.369959 471.763000,22.758961  C470.164276,22.986462 469.084534,23.009939 468.004791,23.033415  z"/> <path fill="#968F3C" opacity="1.000000" stroke="none"  d=" M43.750000,1.000000  C44.500267,4.029752 45.204418,7.043024 45.450989,10.093284  C45.785351,14.229607 45.769203,18.394262 45.528664,22.789255  C43.771049,23.030102 42.388180,23.028458 41.005310,23.026814  C41.170231,18.282539 41.228760,13.531176 41.544277,8.796938  C41.705627,6.375921 42.327271,3.985580 42.870438,1.290687  C43.000000,1.000000 43.500000,1.000000 43.750000,1.000000  z"/> <path fill="#968F3C" opacity="1.000000" stroke="none"  d=" M215.625000,1.000000  C216.094284,8.179906 216.188553,15.359813 215.791412,22.749180  C214.540497,22.951670 213.780991,22.944698 213.021484,22.937727  C213.009827,15.908256 212.998169,8.878785 212.993256,1.424657  C213.750000,1.000000 214.500000,1.000000 215.625000,1.000000  z"/> <path fill="#968F3C" opacity="1.000000" stroke="none"  d=" M382.993958,22.925362  C383.007935,15.825736 383.021942,8.726110 383.017975,1.313242  C383.750000,1.000000 384.500000,1.000000 385.625000,1.000000  C386.140259,7.395436 386.267456,13.791221 386.437866,20.185854  C386.458344,20.954048 386.713287,21.715998 386.521484,22.719353  C385.120239,22.947029 384.057098,22.936195 382.993958,22.925362  z"/> <path fill="#968F3C" opacity="1.000000" stroke="none"  d=" M72.351715,440.371155  C68.576263,444.551208 65.019104,448.454132 60.511421,453.399994  C60.292854,450.362518 60.069366,448.649872 60.062965,446.936462  C60.027531,437.455261 60.581768,427.933044 59.865505,418.506104  C59.341980,411.615845 64.229256,408.395233 67.558304,404.147583  C72.058395,398.405792 77.153748,393.129761 82.007751,387.666351  C85.569565,383.657410 86.647179,383.655182 90.183670,387.573029  C96.974594,395.096161 103.832657,402.560638 110.497658,410.193726  C111.709106,411.581085 112.786652,413.646118 112.814476,415.415771  C113.002693,427.388885 112.897141,439.366730 112.857803,451.342926  C112.856361,451.780090 112.556305,452.216278 112.123405,453.391205  C106.587601,447.425873 101.307640,441.824341 96.137207,436.123505  C93.910088,433.667908 91.888039,431.024048 89.812553,428.433868  C87.673798,425.764740 85.550430,425.636230 83.239166,428.244751  C79.714554,432.222656 76.129440,436.146942 72.351715,440.371155  z"/> <path fill="#968F3C" opacity="1.000000" stroke="none"  d=" M111.574379,153.830566  C112.122986,154.900742 112.699203,155.665390 112.702545,156.432526  C112.758270,169.221130 112.742279,182.010071 112.742279,196.188904  C110.648720,194.361450 109.291077,193.406784 108.216087,192.200287  C101.690613,184.876587 95.157379,177.557220 88.784286,170.101715  C86.397423,167.309448 85.028145,168.722336 83.285614,170.702179  C76.062836,178.908508 68.765373,187.049103 60.679478,196.130096  C60.392258,193.658966 60.073242,192.158401 60.066620,190.656464  C60.021816,180.499283 59.814041,170.333374 60.188484,160.189819  C60.294945,157.305878 61.512871,153.958649 63.333450,151.734360  C69.437935,144.276154 76.122559,137.296249 82.425133,129.995148  C85.312172,126.650726 87.597649,126.701721 90.480019,130.042694  C97.318024,137.968704 104.369949,145.710175 111.574379,153.830566  z"/> <path fill="#968F3C" opacity="1.000000" stroke="none"  d=" M92.251328,189.773178  C97.689613,195.875244 102.418045,202.240295 108.215218,207.405975  C114.842377,213.311203 112.424309,220.160721 112.837639,226.821014  C112.439667,226.994537 112.041695,227.168076 111.643730,227.341614  C103.337234,218.247940 95.030746,209.154282 86.182274,199.467270  C77.556610,209.083847 69.289436,218.300751 60.156075,228.483337  C60.240952,219.969376 58.554356,212.936981 65.174004,206.754715  C72.528023,199.886566 78.730995,191.785950 85.870644,183.730530  C88.256287,185.973587 90.134949,187.739960 92.251328,189.773178  z"/> <path fill="#968F3C" opacity="1.000000" stroke="none"  d=" M60.067520,473.469421  C61.568024,470.341980 62.676918,467.329834 64.613121,465.007446  C70.452560,458.003326 76.594627,451.250458 82.667213,444.442963  C83.737686,443.242950 85.042206,442.251678 86.683212,440.759857  C95.272888,450.560425 104.113770,459.605133 111.528694,469.697540  C113.982330,473.037079 112.762329,479.075653 113.221954,483.880219  C112.632942,484.094849 112.043930,484.309509 111.454918,484.524170  C103.312134,475.549316 95.169357,466.574463 86.326828,456.828339  C77.999809,466.005615 69.959137,474.867310 61.918468,483.729004  C61.297031,483.583984 60.675598,483.438934 60.054165,483.293915  C60.054165,480.162628 60.054165,477.031342 60.067520,473.469421  z"/> <path fill="#968F3C" opacity="1.000000" stroke="none"  d=" M316.057770,303.998230  C316.052094,299.500183 316.418518,295.459991 315.970551,291.512207  C315.218079,284.881348 317.335083,279.567017 321.839661,274.818359  C327.904297,268.425110 333.743713,261.818451 339.709442,255.330658  C340.359711,254.623489 341.205414,254.096039 342.458618,253.082260  C345.255798,256.149384 347.913269,259.041473 350.546600,261.955444  C355.671783,267.626770 360.996460,273.138580 365.787109,279.080414  C367.503815,281.209564 368.689667,284.361206 368.787903,287.093964  C369.140717,296.911713 368.944122,306.749908 368.905090,316.580200  C368.898865,318.146240 368.635529,319.711243 368.347260,322.834747  C364.541809,318.797729 361.710938,315.873718 358.969299,312.868317  C354.374115,307.831268 349.770538,302.799042 345.301514,297.651031  C343.104675,295.120361 341.317078,295.307251 339.214996,297.710297  C333.410522,304.345673 327.459564,310.853943 321.715607,317.540527  C320.443298,319.021637 319.785126,321.030334 318.844177,322.796112  C317.917358,322.241608 316.990570,321.687103 316.063751,321.132599  C316.063751,315.587616 316.063751,310.042633 316.057770,303.998230  z"/> <path fill="#968F3C" opacity="1.000000" stroke="none"  d=" M363.587952,333.473053  C370.895996,339.152679 368.883453,346.556458 368.606445,355.105713  C359.413361,344.952454 351.107849,335.779449 342.272064,326.020813  C333.824951,335.443207 325.721893,344.481812 317.618835,353.520416  C316.320984,346.581970 314.241821,340.111816 320.095032,334.291473  C326.575012,327.847870 332.502502,320.835480 338.486084,313.911346  C341.460236,310.469635 343.736572,310.819550 346.534058,314.109222  C352.028137,320.569916 357.751434,326.835724 363.587952,333.473053  z"/> <path fill="#968F3C" opacity="1.000000" stroke="none"  d=" M335.848419,65.840477  C342.124878,57.830822 342.201019,57.948025 348.514954,65.589264  C353.061615,71.091766 357.675781,76.638489 362.930023,81.430733  C369.320129,87.258995 369.836914,94.067802 368.151398,103.186615  C364.380493,99.184769 361.234650,95.946671 358.203705,92.604355  C354.405609,88.416039 350.651947,84.185020 346.970642,79.893890  C342.808838,75.042671 342.222504,74.905792 337.766693,79.744049  C331.796967,86.226143 325.975555,92.845497 320.139709,99.449417  C319.269196,100.434479 318.667419,101.656990 317.215698,102.347649  C316.358673,95.763092 314.334808,89.559296 319.725983,84.020599  C325.286682,78.307693 330.341248,72.102158 335.848419,65.840477  z"/> <path fill="#968F3C" opacity="1.000000" stroke="none"  d=" M152.952759,314.954315  C150.632492,317.557465 148.532593,319.884918 146.461548,322.180359  C145.896851,321.784241 145.419952,321.607269 145.418335,321.426086  C145.305969,308.942383 145.210449,296.458435 145.197495,283.974396  C145.196533,283.047882 145.574310,281.912506 146.176575,281.225281  C154.386978,271.856201 162.668091,262.549103 171.489014,252.598099  C175.415359,256.835480 178.901184,260.522827 182.302444,264.286621  C186.768524,269.228760 191.207062,274.197296 195.565048,279.234406  C196.506149,280.322174 197.671188,281.742493 197.687256,283.022736  C197.845535,295.634674 197.782852,308.249390 197.782852,322.484100  C195.536880,320.337921 194.245331,319.263885 193.141953,318.022614  C187.280106,311.428131 181.419617,304.831238 175.654205,298.152740  C172.861252,294.917419 170.836395,294.556244 167.850784,298.353943  C163.338074,304.094147 158.101868,309.265533 152.952759,314.954315  z"/> <path fill="#968F3C" opacity="1.000000" stroke="none"  d=" M164.208862,67.192657  C171.442169,58.135983 171.432175,58.144844 178.966003,66.645226  C183.930252,72.246338 188.607254,78.152878 193.996918,83.312584  C200.025711,89.084167 197.200653,95.949837 196.955582,102.995979  C193.776276,99.378746 190.596970,95.761536 187.417679,92.144295  C183.357544,87.524834 179.171982,83.007950 175.281372,78.249863  C172.682327,75.071320 171.154800,75.238220 168.473343,78.483368  C162.126495,86.164406 155.255936,93.413750 148.557983,100.802162  C147.833939,101.600861 146.853149,102.166809 145.484833,103.236908  C144.760178,94.809837 143.887436,87.353996 151.055649,81.316734  C155.850571,77.278305 159.692963,72.108887 164.208862,67.192657  z"/> <path fill="#968F3C" opacity="1.000000" stroke="none"  d=" M180.319458,319.672668  C185.148636,325.175903 189.397583,330.781982 194.426331,335.568878  C199.810715,340.694305 197.322693,346.436066 197.881912,351.971497  C197.399475,352.213989 196.917038,352.456482 196.434601,352.698975  C192.675140,348.859619 188.831985,345.097839 185.180664,341.158264  C181.792023,337.502075 178.565338,333.692261 175.348297,329.881714  C172.956055,327.048126 170.880966,326.458801 168.121704,329.681763  C162.286865,336.497284 156.112900,343.021851 150.234711,349.801544  C149.086212,351.126221 148.647324,353.066101 147.881149,354.722260  C147.080490,354.071503 146.279831,353.420746 145.479172,352.769989  C145.153412,346.288849 143.562851,339.999084 149.790985,334.312805  C156.507767,328.180420 162.294632,320.986145 168.150818,313.974182  C170.787842,310.816711 172.596420,310.501526 175.085510,313.846924  C176.567902,315.839294 178.404907,317.567841 180.319458,319.672668  z"/> <path fill="#968F3C" opacity="1.000000" stroke="none"  d=" M260.741211,387.316284  C266.874939,394.116974 272.710968,400.719757 278.708649,407.172333  C281.690216,410.380005 283.272217,413.782288 283.115509,418.353577  C282.801727,427.506989 283.045929,436.679016 283.021179,445.843262  C283.016449,447.603668 282.834625,449.363617 282.734497,451.123779  C282.315491,451.360565 281.896515,451.597351 281.477509,451.834137  C278.897736,449.209869 276.226074,446.668823 273.758240,443.943207  C269.291992,439.010223 264.914673,433.995331 260.564209,428.959381  C257.991699,425.981537 256.067719,425.417175 253.123611,429.036346  C247.248566,436.258392 240.796310,443.011566 234.558472,449.936768  C233.827362,450.748474 232.945389,451.424255 231.504730,452.734924  C231.281982,450.561737 231.018723,449.159424 231.013474,447.756104  C230.974197,437.258636 230.848740,426.757874 231.088989,416.265900  C231.141632,413.967712 231.984528,411.218048 233.438400,409.502472  C239.891266,401.887909 246.788574,394.651855 253.333984,387.112946  C255.938263,384.113403 258.089630,383.836212 260.741211,387.316284  z"/> <path fill="#968F3C" opacity="1.000000" stroke="none"  d=" M231.001740,192.097519  C230.997482,182.552887 231.537964,173.359055 230.821579,164.264221  C230.273239,157.302826 232.761444,152.227600 237.191116,147.445496  C242.499359,141.714935 247.673508,135.858688 252.841415,130.000153  C255.617126,126.853485 257.853729,126.564323 260.849213,130.098587  C267.402100,137.830002 274.401489,145.181473 281.085052,152.805161  C282.093781,153.955811 282.908936,155.730087 282.924835,157.225327  C283.050507,169.035004 282.966095,180.846985 282.914337,192.658127  C282.912384,193.102539 282.583282,193.545547 282.031342,194.931793  C277.156281,189.741318 272.552612,184.940964 268.070038,180.030090  C265.270172,176.962738 262.619598,173.756424 259.964233,170.560760  C257.833740,167.996719 256.152740,168.225998 253.970886,170.749771  C247.450592,178.291870 240.716064,185.649017 234.045776,193.060883  C233.426559,193.748932 232.669388,194.312836 231.539001,195.326523  C231.289215,193.998322 231.147476,193.244614 231.001740,192.097519  z"/> <path fill="#968F3C" opacity="1.000000" stroke="none"  d=" M278.183685,222.783722  C272.046906,215.983368 266.107452,209.473694 260.288391,202.858109  C257.946960,200.196198 256.416962,199.715424 253.724930,202.910812  C246.793594,211.138168 239.364944,218.946533 231.408127,227.724182  C230.841110,219.175552 229.613144,212.024841 236.418213,205.834488  C242.774994,200.051910 248.104889,193.134811 253.831497,186.668137  C255.875076,184.360474 257.663971,183.851883 259.936981,186.485718  C265.905701,193.401871 271.536926,200.710892 278.199707,206.897186  C284.612274,212.851166 282.811859,219.637054 281.851288,227.046982  C280.710632,225.708603 279.569977,224.370224 278.183685,222.783722  z"/> <path fill="#968F3C" opacity="1.000000" stroke="none"  d=" M267.611511,452.400543  C271.079895,456.242584 274.089233,460.066956 277.624298,463.320099  C283.693939,468.905640 283.682892,475.715729 282.320587,484.736053  C273.507843,475.027344 265.514099,466.220856 256.908264,456.740112  C248.540405,466.055023 240.410614,475.104889 231.285980,485.262238  C231.376099,477.335297 229.074646,470.865570 235.264740,464.874390  C242.863373,457.519989 249.480759,449.151733 257.104340,440.566345  C260.874054,444.803406 264.131500,448.464661 267.611511,452.400543  z"/> <path fill="#968F3C" opacity="1.000000" stroke="none"  d=" M450.288818,450.604065  C442.802826,441.976990 435.551666,433.608124 427.891815,424.767548  C419.033051,434.605652 410.695709,443.864716 402.358398,453.123749  C401.930542,452.948425 401.502716,452.773102 401.074890,452.597778  C401.074890,448.185577 401.075134,443.773346 401.074799,439.361145  C401.074432,435.035950 401.693390,430.601074 400.951233,426.407074  C399.070770,415.779846 404.300903,408.455200 411.080841,401.431549  C416.593719,395.720551 421.717499,389.634003 427.602844,383.055573  C430.612762,386.436127 433.298920,389.485260 436.020386,392.502655  C440.915955,397.930511 446.018738,403.187042 450.641968,408.836731  C452.312256,410.877899 453.682739,413.815857 453.766144,416.390717  C454.116058,427.191254 453.946869,438.009338 453.918488,448.820862  C453.912231,451.209412 453.863983,453.863159 450.288818,450.604065  z"/> <path fill="#968F3C" opacity="1.000000" stroke="none"  d=" M438.757874,138.232941  C442.585602,142.429611 446.274139,146.279617 449.684082,150.362274  C451.138672,152.103836 452.946503,154.308624 452.995819,156.341660  C453.300079,168.891678 453.148651,181.452759 453.148651,195.083984  C451.257751,193.368225 449.769165,192.231827 448.537964,190.863800  C442.753662,184.436630 436.877075,178.080658 431.368896,171.421799  C428.544739,168.007645 426.712799,168.324615 424.004608,171.478745  C417.618195,178.916840 410.961426,186.122986 404.398254,193.408768  C403.770905,194.105164 403.033081,194.702042 401.561157,196.080887  C401.336914,193.635651 401.077576,192.087219 401.071869,190.537872  C401.034332,180.381470 400.918854,170.221817 401.152130,160.070648  C401.204987,157.771622 401.942505,155.008362 403.371918,153.302795  C410.087311,145.289978 417.223053,137.631226 424.057098,129.715164  C426.428162,126.968666 428.342072,126.394508 430.852997,129.467087  C433.264923,132.418503 435.944122,135.151489 438.757874,138.232941  z"/> <path fill="#968F3C" opacity="1.000000" stroke="none"  d=" M435.757629,208.228363  C433.035095,205.337967 430.553040,202.710022 427.563965,199.545258  C418.913086,209.054993 410.642273,218.146973 401.486786,228.211456  C400.981750,219.789230 399.778564,213.184998 405.976379,207.250748  C413.601959,199.949417 420.263092,191.640778 427.802094,183.254623  C431.580963,187.409683 435.044373,191.147232 438.427032,194.956467  C442.062866,199.050751 445.304565,203.554245 449.290100,207.264954  C455.375336,212.930557 453.925720,219.759659 453.605804,228.122131  C447.142334,220.915817 441.570221,214.703308 435.757629,208.228363  z"/> <path fill="#968F3C" opacity="1.000000" stroke="none"  d=" M415.289612,470.299561  C410.877777,475.192780 406.713654,479.833862 402.549530,484.474976  C401.564423,477.801849 399.100311,471.538635 404.885925,465.809174  C411.836029,458.926453 418.029846,451.281403 424.583374,443.995392  C425.443726,443.038849 426.495026,442.254059 428.001740,440.901520  C436.415192,450.416992 445.228729,459.266235 452.512756,469.233246  C455.043732,472.696503 453.788086,478.927032 454.261902,483.893677  C453.748322,484.040710 453.234741,484.187744 452.721191,484.334778  C447.308655,478.443268 441.897919,472.550110 436.482849,466.660950  C433.711517,463.646942 430.932434,460.640076 428.156830,457.630005  C425.337646,460.335052 422.501678,463.022919 419.706207,465.752258  C418.279144,467.145630 416.924652,468.613342 415.289612,470.299561  z"/> <path fill="#B6B361" opacity="1.000000" stroke="none"  d=" M212.780884,23.162926  C213.780991,22.944698 214.540497,22.951670 215.681671,22.961063  C216.404907,28.747889 216.921661,34.531052 216.962494,40.317570  C216.972473,41.730606 215.422089,43.154652 214.589127,44.573635  C213.697418,43.274265 212.062607,41.986382 212.042313,40.673546  C211.953323,34.915676 212.331512,29.150593 212.780884,23.162926  z"/> <path fill="#B6B361" opacity="1.000000" stroke="none"  d=" M215.934647,193.414429  C216.047348,200.015747 216.207169,206.617279 216.178696,213.217987  C216.176529,213.718521 214.837250,214.213272 214.119492,214.710709  C213.439606,213.710510 212.206436,212.729309 212.171356,211.706955  C211.971542,205.885498 212.057526,200.054214 212.426758,193.729767  C213.849640,193.293640 214.892151,193.354034 215.934647,193.414429  z"/> <path fill="#B6B361" opacity="1.000000" stroke="none"  d=" M215.967773,449.939331  C215.976059,455.787933 216.075165,461.639160 215.906433,467.482635  C215.877075,468.499237 214.717529,469.483185 214.079956,470.482208  C213.413101,469.352966 212.213058,468.243744 212.169769,467.091095  C211.958939,461.478271 212.057495,455.853851 212.368591,449.791138  C213.783020,449.545624 214.875397,449.742462 215.967773,449.939331  z"/> <path fill="#B6B361" opacity="1.000000" stroke="none"  d=" M215.962250,108.128479  C216.192459,113.866371 216.540344,119.604057 216.550674,125.342346  C216.552673,126.450371 215.233765,127.560768 214.524170,128.670074  C213.709854,127.658501 212.202148,126.650772 212.196518,125.634735  C212.165649,120.055107 212.502609,114.473434 213.234863,108.490273  C214.491714,108.101547 215.226974,108.115013 215.962250,108.128479  z"/> <path fill="#B6B361" opacity="1.000000" stroke="none"  d=" M214.918869,278.914307  C215.460526,285.462433 216.056122,292.007263 216.453369,298.564148  C216.489761,299.164795 215.276047,300.326538 214.609344,300.351990  C213.900681,300.379059 212.505768,299.346649 212.519470,298.804932  C212.684174,292.302368 213.055054,285.805084 213.926422,279.118378  C214.480789,278.930359 214.918869,278.914307 214.918869,278.914307  z"/> <path fill="#B6B361" opacity="1.000000" stroke="none"  d=" M215.907333,364.161316  C215.943909,370.096405 216.085205,376.034241 215.927841,381.964172  C215.896744,383.136139 214.716797,384.277557 214.066650,385.433044  C213.401581,384.299103 212.166260,383.164520 212.167450,382.031281  C212.173462,376.289917 212.500626,370.548859 213.243698,364.427551  C214.483902,364.085358 215.195618,364.123352 215.907333,364.161316  z"/> <path fill="#968F3C" opacity="1.000000" stroke="none"  d=" M215.965942,363.908203  C215.195618,364.123352 214.483902,364.085358 213.416428,364.050964  C212.682358,363.237427 211.984558,362.422791 211.978088,361.602753  C211.939117,356.656158 211.923065,351.699982 212.224838,346.766937  C212.295792,345.607086 213.618469,344.523773 214.365295,343.405243  C214.943695,344.537872 215.990555,345.657959 216.021164,346.805206  C216.170944,352.417877 216.049881,358.037781 215.965942,363.908203  z"/> <path fill="#968F3C" opacity="1.000000" stroke="none"  d=" M212.029022,261.706970  C212.993988,260.082581 213.952972,258.865601 214.911957,257.648621  C215.391586,258.975067 216.242432,260.291016 216.280167,261.629913  C216.386856,265.416046 216.315292,269.225983 215.963486,272.993835  C215.867432,274.022614 214.534637,274.935944 213.769379,275.902222  C213.164169,274.940521 212.089554,274.003326 212.037796,273.012695  C211.848495,269.389587 211.999954,265.748627 212.029022,261.706970  z"/> <path fill="#968F3C" opacity="1.000000" stroke="none"  d=" M215.977325,449.477997  C214.875397,449.742462 213.783020,449.545624 212.359558,449.343872  C212.117096,445.068817 212.194321,440.798370 212.299759,436.528625  C212.344223,434.727844 212.166275,432.850006 212.637161,431.159760  C212.895187,430.233612 214.294266,429.625336 215.178802,428.873718  C215.617447,429.823029 216.439209,430.775269 216.432022,431.721191  C216.388306,437.487152 216.156158,443.251678 215.977325,449.477997  z"/> <path fill="#968F3C" opacity="1.000000" stroke="none"  d=" M215.949463,192.905273  C214.892151,193.354034 213.849640,193.293640 212.417740,193.281952  C212.116592,189.059708 212.200821,184.788666 212.295166,180.517868  C212.331360,178.879654 212.125381,177.171860 212.532974,175.628677  C212.803650,174.603867 213.966843,173.814774 214.730530,172.920166  C215.289322,173.975143 216.322464,175.028000 216.327225,176.085464  C216.351639,181.521698 216.111816,186.959106 215.949463,192.905273  z"/> <path fill="#968F3C" opacity="1.000000" stroke="none"  d=" M216.055725,107.771820  C215.226974,108.115013 214.491714,108.101547 213.389221,108.113297  C212.923981,101.220871 211.241470,94.186310 213.842468,87.467850  C214.496552,87.458969 215.150620,87.450089 215.804688,87.441208  C215.919525,94.099197 216.034363,100.757179 216.055725,107.771820  z"/> <path fill="#968F3C" opacity="1.000000" stroke="none"  d=" M214.786163,278.742188  C214.918869,278.914307 214.480789,278.930359 214.262192,278.918152  C214.043594,278.905975 214.007553,278.459564 214.003754,278.229187  C213.999954,277.998810 214.013504,277.980286 214.013504,277.980286  C214.249924,278.151825 214.463226,278.348419 214.786163,278.742188  z"/> <path fill="#968F3C" opacity="1.000000" stroke="none"  d=" M213.990982,278.005615  C213.982010,278.012421 213.956696,277.891602 213.985107,277.935944  C214.013504,277.980286 213.999954,277.998810 213.990982,278.005615  z"/> <path fill="#968F3C" opacity="1.000000" stroke="none"  d=" M216.488861,277.492126  C216.510727,277.484222 216.467010,277.500061 216.488861,277.492126  z"/> <path fill="#B6B361" opacity="1.000000" stroke="none"  d=" M301.984558,279.128632  C301.980469,284.595825 302.169250,290.074005 301.859436,295.523834  C301.761414,297.247925 300.331146,298.896271 299.510590,300.579315  C298.971497,298.940063 298.086426,297.327484 297.957397,295.656586  C297.551178,290.394073 297.428772,285.109619 297.514771,279.406311  C299.216888,279.028809 300.600739,279.078735 301.984558,279.128632  z"/> <path fill="#B6B361" opacity="1.000000" stroke="none"  d=" M301.997498,364.135437  C301.426208,371.400818 303.126709,378.918854 300.957642,386.006561  C300.028015,385.985718 299.098358,385.964844 298.168732,385.943970  C298.073364,378.904114 297.978027,371.864227 298.364868,364.441986  C299.897217,364.084900 300.947357,364.110168 301.997498,364.135437  z"/> <path fill="#B6B361" opacity="1.000000" stroke="none"  d=" M300.976166,193.948517  C301.266449,200.029129 301.633179,206.108215 301.753998,212.192200  C301.769775,212.987839 300.522919,213.808533 299.860870,214.617615  C299.038696,213.546677 297.538391,212.494400 297.508331,211.401703  C297.354340,205.802811 297.578949,200.193481 298.216278,194.261444  C299.499573,193.939545 300.237885,193.944031 300.976166,193.948517  z"/> <path fill="#B6B361" opacity="1.000000" stroke="none"  d=" M297.101440,23.429262  C298.388062,23.028322 299.771057,23.030783 301.566284,23.079823  C301.972687,28.570023 302.124451,34.021412 301.856689,39.452126  C301.784485,40.916660 300.439301,42.318443 299.678436,43.749031  C299.085266,42.363564 298.085022,41.010506 297.971680,39.586842  C297.554565,34.348122 297.431519,29.085989 297.101440,23.429262  z"/> <path fill="#968F3C" opacity="1.000000" stroke="none"  d=" M301.947754,278.834656  C300.600739,279.078735 299.216888,279.028809 297.417603,279.001984  C297.177582,273.600983 297.207245,268.166168 297.605499,262.758514  C297.749939,260.797302 298.775269,258.901001 299.398651,256.975067  C300.236084,257.138763 301.073486,257.302429 301.910919,257.466095  C301.910919,264.490967 301.910919,271.515839 301.947754,278.834656  z"/> <path fill="#B6B361" opacity="1.000000" stroke="none"  d=" M301.977478,460.017975  C301.953491,462.976990 302.086578,465.472565 301.815826,467.923492  C301.715668,468.830322 300.666168,469.632263 300.049622,470.482025  C299.384796,469.700287 298.171265,468.936920 298.144409,468.133789  C297.973297,463.020447 297.976501,457.895203 298.160156,452.782410  C298.188446,451.994598 299.442139,451.250763 300.129089,450.486572  C300.719238,451.355743 301.699493,452.174164 301.820648,453.104462  C302.096100,455.219391 301.949432,457.389252 301.977478,460.017975  z"/> <path fill="#968F3C" opacity="1.000000" stroke="none"  d=" M301.024384,193.673035  C300.237885,193.944031 299.499573,193.939545 298.392334,193.941833  C297.879242,187.665497 297.630524,181.381134 297.703491,175.100540  C297.714478,174.156082 299.228821,173.229095 301.072601,172.799301  C301.072601,179.665375 301.072601,186.531464 301.024384,193.673035  z"/> <path fill="#968F3C" opacity="1.000000" stroke="none"  d=" M301.918518,363.879883  C300.947357,364.110168 299.897217,364.084900 298.454468,364.073700  C296.351379,354.811676 297.552979,345.375397 301.839569,342.764862  C301.839569,350.171814 301.839569,356.898041 301.918518,363.879883  z"/> <path fill="#968F3C" opacity="1.000000" stroke="none"  d=" M301.509613,93.745865  C301.493530,97.471596 301.637024,100.958298 301.372162,104.413712  C301.299408,105.362617 300.005219,106.217896 299.271484,107.116135  C298.763275,106.198059 297.865967,105.301567 297.813660,104.358215  C297.576202,100.077049 297.389648,95.773888 297.590424,91.497681  C297.663910,89.932541 298.859711,88.420113 299.543518,86.883636  C300.200775,87.041885 300.858002,87.200127 301.515228,87.358376  C301.515228,89.403931 301.515228,91.449493 301.509613,93.745865  z"/> <path fill="#968F3C" opacity="1.000000" stroke="none"  d=" M297.625671,431.792480  C298.373077,430.681244 299.149628,429.887268 299.926147,429.093262  C300.450409,429.980652 301.397308,430.853699 301.427948,431.757812  C301.584564,436.378998 301.607178,441.012299 301.422516,445.631226  C301.384857,446.573639 300.257507,447.472504 299.632446,448.391418  C298.975494,447.407349 297.799377,446.447937 297.751282,445.434937  C297.540710,441.001678 297.657074,436.552887 297.625671,431.792480  z"/> <path fill="#B6B361" opacity="1.000000" stroke="none"  d=" M385.975067,363.950653  C387.388672,371.402496 388.137268,378.800873 385.516235,385.928436  C384.669769,385.911407 383.823273,385.894379 382.976807,385.877380  C382.976807,378.847870 382.976807,371.818390 383.373657,364.427490  C384.505341,364.027618 385.240204,363.989136 385.975067,363.950653  z"/> <path fill="#B6B361" opacity="1.000000" stroke="none"  d=" M386.862366,278.294373  C386.948578,284.399414 387.159027,290.507294 387.021149,296.607269  C386.991913,297.899811 385.690460,299.163574 384.975159,300.440582  C384.321899,299.133392 383.152161,297.844604 383.104706,296.515808  C382.898804,290.746094 383.020203,284.964722 383.406677,278.707886  C384.814636,278.250275 385.838501,278.272339 386.862366,278.294373  z"/> <path fill="#968F3C" opacity="1.000000" stroke="none"  d=" M383.019867,108.127090  C383.019867,101.092888 383.019867,94.058685 383.019867,87.024483  C383.731537,86.853004 384.443207,86.681519 385.154877,86.510040  C385.875427,88.222672 387.092316,89.898277 387.223358,91.654884  C387.613678,96.887268 387.577576,102.151451 387.421875,107.738373  C385.763733,108.091393 384.391785,108.109238 383.019867,108.127090  z"/> <path fill="#B6B361" opacity="1.000000" stroke="none"  d=" M386.996826,194.017975  C387.015350,199.960587 387.089294,205.904053 386.996826,211.844925  C386.981720,212.813629 386.231110,213.770874 385.820465,214.733414  C384.955231,214.149292 383.345795,213.573105 383.339478,212.979843  C383.273926,206.814499 383.466309,200.646423 384.184326,194.205139  C385.519989,193.960114 386.258423,193.989044 386.996826,194.017975  z"/> <path fill="#B6B361" opacity="1.000000" stroke="none"  d=" M382.991486,108.454399  C384.391785,108.109238 385.763733,108.091393 387.545502,108.097504  C387.644684,112.691246 387.318909,117.260063 387.032135,121.831329  C386.939362,123.310120 387.189301,124.858322 386.823486,126.254517  C386.595673,127.124008 385.507538,127.768120 384.805511,128.513382  C384.250183,127.792038 383.236053,127.085533 383.212158,126.346992  C383.022797,120.495346 383.021912,114.637589 382.991486,108.454399  z"/> <path fill="#B6B361" opacity="1.000000" stroke="none"  d=" M382.996216,23.401186  C384.057098,22.936195 385.120239,22.947029 386.581482,22.956961  C387.025360,29.247452 387.125916,35.539673 387.031006,41.828941  C387.021667,42.449543 385.815308,43.052086 385.164520,43.663013  C384.464630,42.702194 383.196533,41.763149 383.158752,40.776958  C382.943115,35.149860 383.020569,29.511528 382.996216,23.401186  z"/> <path fill="#B6B361" opacity="1.000000" stroke="none"  d=" M387.010315,449.920685  C387.003357,455.559784 387.100037,461.202454 386.908295,466.835266  C386.866241,468.070526 385.797424,469.270844 385.201416,470.487244  C384.472961,469.231720 383.132294,467.981079 383.122284,466.719818  C383.079163,461.299988 383.427155,455.877075 384.214752,450.169098  C385.534637,449.895508 386.272491,449.908112 387.010315,449.920685  z"/> <path fill="#968F3C" opacity="1.000000" stroke="none"  d=" M386.921600,278.063110  C385.838501,278.272339 384.814636,278.250275 383.406952,278.257202  C383.181213,272.862091 383.223846,267.430481 383.576477,262.019073  C383.667694,260.619354 384.730896,259.282959 385.347656,257.917480  C386.160614,259.485718 387.659576,261.057434 387.651733,262.621582  C387.632019,266.562103 386.873108,270.494202 386.544342,274.440826  C386.451843,275.551361 386.822571,276.700470 386.921600,278.063110  z"/> <path fill="#968F3C" opacity="1.000000" stroke="none"  d=" M386.014008,363.613037  C385.240204,363.989136 384.505341,364.027618 383.404053,364.095398  C383.037598,357.101562 383.037598,350.078400 383.037598,342.531372  C387.760101,345.073669 388.687256,354.406891 386.014008,363.613037  z"/> <path fill="#968F3C" opacity="1.000000" stroke="none"  d=" M387.056427,449.605316  C386.272491,449.908112 385.534637,449.895508 384.429657,449.855042  C384.062500,443.007568 384.062500,436.187958 384.062500,429.368378  C384.615784,429.306427 385.169037,429.244476 385.722321,429.182526  C388.488495,435.562775 387.005768,442.536713 387.056427,449.605316  z"/> <path fill="#968F3C" opacity="1.000000" stroke="none"  d=" M387.048218,193.693771  C386.258423,193.989044 385.519989,193.960114 384.413330,193.910324  C382.575226,185.238388 383.215515,175.287064 386.553680,172.138809  C386.753876,179.924515 386.926727,186.647034 387.048218,193.693771  z"/> <path fill="#B6B361" opacity="1.000000" stroke="none"  d=" M471.941986,449.878540  C472.240997,456.263367 472.658569,462.647034 472.722961,469.034210  C472.733734,470.106812 471.215912,471.194824 470.404358,472.275696  C469.620026,471.059631 468.211456,469.870483 468.157654,468.622925  C467.901642,462.688904 468.014404,456.739014 468.389771,450.328491  C469.836426,449.867676 470.889191,449.873108 471.941986,449.878540  z"/> <path fill="#B6B361" opacity="1.000000" stroke="none"  d=" M471.980988,364.125305  C471.957184,370.541595 471.988159,376.959229 471.831909,383.372284  C471.814728,384.077209 470.723969,384.755981 470.131134,385.446869  C469.450195,384.485779 468.186005,383.526215 468.183502,382.563354  C468.167877,376.601257 468.435883,370.638458 469.186218,364.331970  C470.502136,364.033813 471.241577,364.079559 471.980988,364.125305  z"/> <path fill="#B6B361" opacity="1.000000" stroke="none"  d=" M468.013916,23.498585  C469.084534,23.009939 470.164276,22.986462 471.651062,22.963705  C472.195923,28.723942 472.462006,34.485588 472.366394,40.241230  C472.346619,41.432274 470.981995,42.600983 470.237183,43.779991  C469.514618,42.472641 468.232788,41.192345 468.167999,39.853176  C467.912292,34.566738 468.038513,29.261818 468.013916,23.498585  z"/> <path fill="#B6B361" opacity="1.000000" stroke="none"  d=" M471.964661,108.120712  C472.185181,113.697899 472.541473,119.275528 472.523499,124.851952  C472.519409,126.126289 471.223938,127.396469 470.522827,128.668564  C469.700745,127.491264 468.186401,126.320488 468.175232,125.135559  C468.124237,119.721222 468.494965,114.302910 469.235657,108.484451  C470.492981,108.095482 471.228821,108.108101 471.964661,108.120712  z"/> <path fill="#B6B361" opacity="1.000000" stroke="none"  d=" M472.030884,278.957611  C472.224823,284.915741 472.506165,290.873566 472.525269,296.832245  C472.528412,297.806427 471.375122,298.784302 470.756287,299.760437  C469.927887,299.108154 468.365448,298.433289 468.384766,297.807129  C468.574890,291.634644 469.027710,285.470245 469.952728,279.118225  C470.499451,278.932922 470.910828,278.916351 470.910828,278.916351  C471.097137,278.924652 471.283417,278.932922 471.735565,278.969879  C472.001404,278.998596 472.030914,278.957611 472.030884,278.957611  z"/> <path fill="#B6B361" opacity="1.000000" stroke="none"  d=" M472.997650,194.034988  C472.716736,199.779419 472.511200,205.529343 472.093109,211.263779  C472.006683,212.449219 471.129547,213.577042 470.616852,214.731415  C469.762207,213.583267 468.229797,212.469711 468.169159,211.281036  C467.892029,205.851990 468.027924,200.401871 468.424774,194.465347  C470.221985,193.992569 471.609802,194.013779 472.997650,194.034988  z"/> <path fill="#968F3C" opacity="1.000000" stroke="none"  d=" M472.057129,107.764511  C471.228821,108.108101 470.492981,108.095482 469.389709,108.106842  C468.043243,101.197784 466.806488,94.246368 469.257629,87.558121  C470.063751,87.563904 470.869873,87.569687 471.675995,87.575470  C471.833862,94.186417 471.991760,100.797371 472.057129,107.764511  z"/> <path fill="#968F3C" opacity="1.000000" stroke="none"  d=" M471.986664,363.644928  C471.241577,364.079559 470.502136,364.033813 469.392914,363.971008  C468.698181,358.380676 468.219543,352.808838 468.166046,347.232941  C468.153992,345.979370 469.626862,344.711548 470.416138,343.450287  C470.964569,344.748901 471.945282,346.034302 471.985413,347.348419  C472.146179,352.615631 472.015381,357.891724 471.986664,363.644928  z"/> <path fill="#968F3C" opacity="1.000000" stroke="none"  d=" M472.907166,193.623947  C471.609802,194.013779 470.221985,193.992569 468.418579,193.998383  C468.535400,187.009705 467.079407,179.758636 469.827271,173.005203  C470.316711,173.004471 470.806122,173.003738 471.295563,173.002991  C471.802612,179.739639 472.309631,186.476273 472.907166,193.623947  z"/> <path fill="#968F3C" opacity="1.000000" stroke="none"  d=" M471.956604,449.422455  C470.889191,449.873108 469.836426,449.867676 468.387421,449.849701  C468.251251,443.712555 468.402008,437.579590 468.869141,431.470825  C468.956299,430.331238 470.313202,429.288727 471.971222,428.767151  C471.971222,435.500214 471.971222,442.233307 471.956604,449.422455  z"/> <path fill="#968F3C" opacity="1.000000" stroke="none"  d=" M472.003418,268.876099  C471.233704,271.390747 470.464264,273.441254 469.694824,275.491791  C469.188293,273.406616 468.429688,271.344513 468.236115,269.230682  C467.965546,266.275879 467.930847,263.265747 468.196686,260.315491  C468.279724,259.394073 469.661072,258.589661 470.448090,257.731689  C470.962219,258.640900 471.845581,259.521057 471.919830,260.464874  C472.127075,263.099823 471.999237,265.761108 472.003418,268.876099  z"/> <path fill="#968F3C" opacity="1.000000" stroke="none"  d=" M472.015076,278.980225  C472.093262,278.899078 472.157776,278.836304 472.126587,278.865570  C472.030914,278.957611 472.001404,278.998596 472.015076,278.980225  z"/> <path fill="#968F3C" opacity="1.000000" stroke="none"  d=" M467.990234,277.421692  C468.035675,277.423523 467.944794,277.419830 467.990234,277.421692  z"/> <path fill="#968F3C" opacity="1.000000" stroke="none"  d=" M470.814880,278.854797  C470.910828,278.916351 470.499451,278.932922 470.294678,278.924255  C470.280792,278.754272 470.490479,278.713470 470.814880,278.854797  z"/> <path fill="#B6B361" opacity="1.000000" stroke="none"  d=" M41.101841,23.430090  C42.388180,23.028458 43.771049,23.030102 45.566124,23.078533  C45.978394,28.264540 45.998138,33.403885 45.964985,38.542889  C45.956470,39.862347 46.128700,41.356857 45.576714,42.445992  C45.102535,43.381603 43.713451,43.853531 42.728939,44.530495  C42.362225,43.568306 41.713722,42.617321 41.674942,41.642094  C41.439007,35.708916 41.341846,29.770220 41.101841,23.430090  z"/> <path fill="#B6B361" opacity="1.000000" stroke="none"  d=" M44.963467,193.127960  C45.277958,199.391113 45.685413,205.652557 45.800938,211.919373  C45.817192,212.800949 44.405762,213.708832 43.655167,214.604538  C42.907986,213.633881 41.531250,212.672470 41.516823,211.691055  C41.429668,205.762131 41.654125,199.828644 42.162354,193.592407  C43.354713,193.234756 44.159088,193.181351 44.963467,193.127960  z"/> <path fill="#B6B361" opacity="1.000000" stroke="none"  d=" M45.998306,364.128906  C45.421761,371.397980 47.132969,378.923859 44.973351,386.015289  C44.051304,385.992737 43.129257,385.970154 42.207211,385.947601  C42.090244,378.886627 41.973274,371.825623 42.332436,364.387939  C43.871811,364.050446 44.935059,364.089661 45.998306,364.128906  z"/> <path fill="#B6B361" opacity="1.000000" stroke="none"  d=" M45.984886,279.127014  C45.978073,284.896362 46.089691,290.670074 45.876915,296.431824  C45.826916,297.785797 44.681404,299.099274 44.039883,300.431396  C43.352093,299.145416 42.173229,297.900299 42.062149,296.566284  C41.598969,291.003815 41.456955,285.414581 41.515160,279.407776  C43.217064,279.029266 44.600975,279.078156 45.984886,279.127014  z"/> <path fill="#B6B361" opacity="1.000000" stroke="none"  d=" M41.932766,460.378418  C41.916801,457.466675 41.728802,454.978790 42.017963,452.547668  C42.109703,451.776367 43.473392,451.156372 44.255009,450.467133  C44.790577,451.218933 45.769646,451.958923 45.790085,452.724487  C45.927692,457.878113 45.950550,463.040314 45.768024,468.191162  C45.740101,468.979187 44.459278,469.722778 43.757927,470.486938  C43.179768,469.595825 42.209755,468.749756 42.101151,467.804657  C41.836571,465.502319 41.971409,463.154022 41.932766,460.378418  z"/> <path fill="#968F3C" opacity="1.000000" stroke="none"  d=" M42.017029,108.011703  C39.990891,99.391312 41.362480,88.982933 45.952438,86.887123  C45.952438,94.111938 45.952438,100.799995 45.569580,107.782776  C44.130161,108.055573 43.073593,108.033638 42.017029,108.011703  z"/> <path fill="#968F3C" opacity="1.000000" stroke="none"  d=" M45.918419,363.874207  C44.935059,364.089661 43.871811,364.050446 42.409916,364.013245  C39.952888,355.131683 41.335518,344.922699 45.838535,343.043396  C45.838535,350.182037 45.838535,356.900757 45.918419,363.874207  z"/> <path fill="#B6B361" opacity="1.000000" stroke="none"  d=" M42.005852,108.479050  C43.073593,108.033638 44.130161,108.055573 45.581963,108.104317  C45.973305,113.630981 46.100460,119.136322 45.870590,124.626717  C45.815212,125.949448 44.576954,127.222664 43.882668,128.518646  C43.246052,127.161026 42.117397,125.823647 42.060547,124.442169  C41.848301,119.284744 41.987385,114.112862 42.005852,108.479050  z"/> <path fill="#968F3C" opacity="1.000000" stroke="none"  d=" M45.052460,192.875366  C44.159088,193.181351 43.354713,193.234756 42.308357,193.262924  C41.752605,187.438477 41.274544,181.639694 41.259174,175.839676  C41.255978,174.632751 42.965881,173.421295 43.886299,172.211929  C44.304684,172.447891 44.723068,172.683853 45.141453,172.919815  C45.141453,179.487473 45.141453,186.055130 45.052460,192.875366  z"/> <path fill="#968F3C" opacity="1.000000" stroke="none"  d=" M45.947758,278.833252  C44.600975,279.078156 43.217064,279.029266 41.417713,279.003448  C41.303387,272.469727 41.604500,265.912964 41.905613,259.356201  C42.259380,259.053650 42.613152,258.751099 42.966919,258.448547  C43.810459,259.704407 45.289291,260.913147 45.386589,262.224426  C45.788887,267.645874 45.772930,273.098358 45.947758,278.833252  z"/> <path fill="#968F3C" opacity="1.000000" stroke="none"  d=" M45.459785,446.705933  C43.879875,449.435822 41.964973,449.686432 41.663673,446.541779  C41.173668,441.427612 41.397236,436.226837 41.636097,431.077332  C41.680828,430.113037 43.208469,429.217529 44.051781,428.290283  C44.525600,428.454224 44.999424,428.618195 45.473244,428.782135  C45.473244,434.676910 45.473244,440.571686 45.459785,446.705933  z"/> <path fill="#968F3C" opacity="1.000000" stroke="none"  d=" M127.021729,364.129395  C127.021729,357.366211 127.021729,350.603058 127.021729,343.659241  C130.636475,342.891296 131.842728,345.021027 131.844147,347.714783  C131.846878,352.848541 131.427414,357.982544 130.695984,363.544617  C129.146393,364.024994 128.084061,364.077209 127.021729,364.129395  z"/> <path fill="#B6B361" opacity="1.000000" stroke="none"  d=" M131.002426,107.924217  C130.872131,131.391113 131.762497,128.369324 126.977371,130.486603  C126.977371,122.897644 126.977371,115.844261 127.403595,108.440796  C128.887360,108.035210 129.944885,107.979713 131.002426,107.924217  z"/> <path fill="#B6B361" opacity="1.000000" stroke="none"  d=" M127.016907,364.585449  C128.084061,364.077209 129.146393,364.024994 130.607330,363.947601  C131.815979,380.714355 131.454330,383.714508 127.012093,386.820526  C127.012093,378.985840 127.012093,372.013702 127.016907,364.585449  z"/> <path fill="#B6B361" opacity="1.000000" stroke="none"  d=" M131.011780,449.920654  C131.081512,455.204376 131.287460,460.491882 131.139435,465.769501  C131.093979,467.390228 130.159790,469.022919 129.415298,470.543732  C129.314331,470.749969 127.343185,470.492004 127.259857,470.177917  C126.887283,468.773468 126.718399,467.263855 126.779266,465.804871  C126.991669,460.714172 127.329750,455.628662 128.209656,450.208130  C129.536774,449.890259 130.274277,449.905457 131.011780,449.920654  z"/> <path fill="#968F3C" opacity="1.000000" stroke="none"  d=" M130.949890,107.602509  C129.944885,107.979713 128.887360,108.035210 127.434059,108.109039  C127.038292,101.164146 127.038292,94.200928 127.038292,87.237717  C127.661873,87.038010 128.285461,86.838303 128.909042,86.638596  C129.614182,87.891594 130.885208,89.126114 130.926849,90.400795  C131.110428,96.021149 130.939713,101.653076 130.949890,107.602509  z"/> <path fill="#B6B361" opacity="1.000000" stroke="none"  d=" M130.996643,194.019547  C131.010178,199.818665 131.118149,205.620438 130.955795,211.414627  C130.924133,212.544281 129.842041,213.644470 129.244446,214.758255  C128.517075,213.800156 127.168007,212.844437 127.164314,211.883560  C127.142151,206.108109 127.428833,200.331451 128.202774,194.222504  C129.527863,193.933044 130.262253,193.976288 130.996643,194.019547  z"/> <path fill="#B6B361" opacity="1.000000" stroke="none"  d=" M126.994980,23.400223  C128.061310,22.945694 129.128662,22.967096 130.595428,23.013062  C131.020203,28.659866 131.163788,34.285957 130.981033,39.901428  C130.939545,41.176758 129.766907,42.415283 129.114914,43.670750  C128.415146,42.364475 127.171921,41.082863 127.111320,39.747578  C126.871643,34.466240 127.002533,29.168079 126.994980,23.400223  z"/> <path fill="#968F3C" opacity="1.000000" stroke="none"  d=" M131.092957,449.541351  C130.274277,449.905457 129.536774,449.890259 128.432449,449.844849  C127.876572,443.725159 127.596565,437.635742 127.593475,431.546173  C127.592995,430.599091 128.857056,429.651337 129.536346,428.703888  C130.082275,428.868011 130.628189,429.032135 131.174118,429.196259  C131.174118,435.851532 131.174118,442.506775 131.092957,449.541351  z"/> <path fill="#B6B361" opacity="1.000000" stroke="none"  d=" M130.001892,278.847931  C130.296097,284.949066 130.665634,291.048645 130.789993,297.153229  C130.805695,297.923584 129.533066,298.720184 128.857361,299.504639  C128.263611,298.624420 127.184227,297.759827 127.155251,296.861389  C126.972733,291.202209 127.023560,285.535553 127.372826,279.401917  C128.499542,278.904327 129.250717,278.876129 130.001892,278.847931  z"/> <path fill="#968F3C" opacity="1.000000" stroke="none"  d=" M130.155716,278.684601  C129.250717,278.876129 128.499542,278.904327 127.372955,278.928650  C126.997536,272.537567 126.997536,266.150360 126.997536,259.763153  C127.731628,259.516846 128.465714,259.270508 129.199814,259.024200  C130.120270,260.853302 131.838745,262.697052 131.805496,264.508636  C131.719650,269.187103 130.860092,273.851349 130.155716,278.684601  z"/> <path fill="#968F3C" opacity="1.000000" stroke="none"  d=" M131.048157,193.695465  C130.262253,193.976288 129.527863,193.933044 128.427429,193.860565  C127.875793,187.702881 127.619446,181.574707 127.593788,175.445587  C127.590584,174.677048 128.804657,173.903427 129.454712,173.132156  C130.247253,174.003769 131.726303,174.879150 131.721573,175.746399  C131.689453,181.622345 131.343903,187.496597 131.048157,193.695465  z"/> </svg>
