<svg version="1.0" xmlns="http://www.w3.org/2000/svg" width="27.000000pt" height="244.000000pt" viewBox="0 0 27.000000 244.000000" preserveAspectRatio="xMidYMid meet"><g transform="translate(0.000000,244.000000) scale(0.100000,-0.100000)" fill="#397677" stroke="none"><path d="M77 1458 c-32 -530 -58 -979 -58 -998 0 -45 113 -470 124 -470 5 0 6 7 3 16 -3 8 -2 13 2 10 4 -2 34 93 65 212 l58 217 -61 985 c-33 542 -60 986 -60 988 0 1 -3 2 -8 2 -4 0 -33 -433 -65 -962z" fill="#fff"/><path d="M57 1478 c-32 -530 -58 -979 -58 -998 0 -45 113 -470 124 -470 5 0 6 7 3 16 -3 8 -2 13 2 10 4 -2 34 93 65 212 l58 217 -61 985 c-33 542 -60 986 -60 988 0 1 -3 2 -8 2 -4 0 -33 -433 -65 -962z"/></g></svg>
