<svg width="12" height="17" fill="none" xmlns="http://www.w3.org/2000/svg"><path fill-rule="evenodd" clip-rule="evenodd" d="M11.25 0H0v8.5h0.75V0.5h10.5V0z" fill="#DFDFDF"/><path fill-rule="evenodd" clip-rule="evenodd" d="M1.5 0.5H0.75v7h0.75v-6.5h9V0.5h-9z" fill="#fff"/><path fill-rule="evenodd" clip-rule="evenodd" d="M12 8.5H0v-0.5h11.25V0H12v8.5z" fill="#000"/><path fill-rule="evenodd" clip-rule="evenodd" d="M11.25 0.5h-0.75v7H1.5v1h9.75v-8z" fill="gray"/><path fill="silver" d="M1.5 1h9v6.5h-9z"/><path fill-rule="evenodd" clip-rule="evenodd" d="M6 3H5.25v0.5h-0.75v0.5h-0.75v0.5H3v0.5h5.25V4.5h-0.75V4H6.75v-0.5H6V3z" fill="#000"/><path fill-rule="evenodd" clip-rule="evenodd" d="M11.25 8.5H0V17h0.75v-6.5h10.5V8.5z" fill="#DFDFDF"/><path fill-rule="evenodd" clip-rule="evenodd" d="M1.5 9H0.75v7h0.75v-6.5h9V9h-9z" fill="#fff"/><path fill-rule="evenodd" clip-rule="evenodd" d="M12 17H0v-0.5h11.25V8.5H12V17z" fill="#000"/><path fill-rule="evenodd" clip-rule="evenodd" d="M11.25 9h-0.75v7H1.5v1h9.75V9z" fill="gray"/><path fill="silver" d="M1.5 9.5h9V16h-9z"/><path fill-rule="evenodd" clip-rule="evenodd" d="M8.25 11H3v0.5h0.75v0.5h0.75v0.5h0.75v0.5h0.75V13h0.75v-0.5h0.75V12h0.75V11z" fill="#000"/></svg>
